<?xml version="1.0" encoding="UTF-8"?>
<svg id="OBJECTS" xmlns="http://www.w3.org/2000/svg" viewBox="0 0 313.25 313.66">
  <defs>
    <style>
      .cls-1, .cls-2, .cls-3, .cls-4 {
        stroke-width: 0px;
      }

      .cls-2 {
        fill: #f7e955;
      }

      .cls-3 {
        fill: #982fab;
      }

      .cls-4 {
        fill: #eb4795;
      }
    </style>
  </defs>
  <polygon class="cls-2" points="36.08 110.68 32.61 110.68 29.49 114.56 27.99 118.46 27.15 123.21 27.6 127.07 28.6 131.09 30.4 134.41 37.43 132.78 45.04 129.4 46.67 126.21 43.61 122.3 37.84 115.41 36.08 110.68"/>
  <path class="cls-3" d="M176.62,313.66c-2.99,0-5.94-.47-8.78-1.39-3.59-1.17-6.99-3.1-9.82-5.58-.03-.03-.96-.89-.96-.89-.06-.05-.11-.11-.16-.16l-.27-.28-.27.28c-.05.05-.11.11-.16.16,0,0-.93.87-.96.89-2.83,2.49-6.22,4.42-9.83,5.58-2.83.92-5.78,1.39-8.77,1.39-.8,0-1.62-.03-2.41-.1-3.75-.31-7.51-1.43-10.85-3.23-1.66-.89-3.23-1.96-4.69-3.17-1.38-1.16-2.67-2.42-3.84-3.77-2.33-2.65-4.23-5.74-5.63-9.17-.23-.55-.69-.89-1.17-.89-.83.06-1.59.09-2.33.09-.86,0-1.73-.04-2.57-.11-2.18-.19-4.34-.62-6.4-1.27-2-.63-4-1.51-5.96-2.63-3.84-2.24-7.14-5.32-9.58-8.93-.36-.53-.66-.99-.93-1.47,0,0-.38-.64-.41-.69l-.33-.61c-.21-.37-.42-.82-.64-1.27l-.09-.19s-.12-.25-.23-.54c-.28-.72-1-1.22-1.78-1.22-.07,0-.14,0-.21.01-.13.01-.25.02-.38.03l-.56.02c-.42.01-.84.02-1.26.03-.01,0-.18,0-.26,0l-2.04-.1c-.27-.01-.54-.03-.82-.06l-.94-.11c-.48-.05-.99-.14-1.5-.22,0,0-.57-.1-.62-.11-5.52-1.09-10.62-3.59-14.75-7.24-4.2-3.72-7.35-8.44-9.08-13.65-.92-2.82-1.44-5.56-1.58-8.17l-.04-.9c0-.07,0-.14,0-.22v-.89c-.01-.44.01-.97.04-1.5,0,0,.03-.64.04-.72.05-.47.1-.94.16-1.41l.06-.5,4.53.38-4.51-.54c.02-.16.04-.32.06-.47.01-.07.14-.66.14-.66l.2-.9c.16-.69.39-1.38.72-2.2.22-.57.11-1.05-.03-1.36-.12-.27-.43-.77-1.11-1.01-.01,0-.1-.04-.12-.04-3.65-1.32-7.09-3.46-9.9-6.16l-.34-.33c-.23-.23-.45-.45-.67-.68-.03-.03-.33-.36-.33-.36-.22-.24-.44-.48-.65-.72-.03-.03-.84-1.02-.84-1.02-.24-.3-.44-.58-.65-.86l-.2-.28c-1.14-1.61-2.1-3.21-2.89-4.84-1.67-3.47-2.72-7.04-3.14-10.65-.43-3.74-.25-7.45.53-11.03.06-.3.14-.64.22-.97.53-2.15-.64-4.3-2.71-5.01-.03-.01-.11-.04-.14-.05-4.13-1.46-8.01-3.82-11.2-6.83-3.18-2.98-5.77-6.71-7.5-10.78C.8,167.33-.07,162.87,0,158.49l.02-.52c.01-.36.02-.73.05-1.09,0-.04.05-.55.05-.55.03-.36.06-.73.1-1.08,0-.04.2-1.49.2-1.49.06-.41.13-.79.21-1.17l.08-.4c.45-2.18,1.04-4.2,1.77-6.11,1.59-4.04,3.73-7.66,6.39-10.78.62-.72.78-1.68.46-2.54-.31-.84-.59-1.7-.82-2.55-.22-.73-.35-1.43-.45-1.99l-.09-.48c-.11-.49-.15-.92-.18-1.24l-.15-1.38c-.01-.12-.02-.24-.02-.36l-.03-1.34c0-.32-.02-.76.02-1.27l.02-.38c.03-.64.07-1.35.2-2.15l.04-.27c.04-.28.08-.57.12-.85.01-.09.03-.18.05-.26l.27-1.23c.08-.35.18-.81.36-1.33l.27-.88c.14-.5.32-.91.43-1.19l.52-1.28c.05-.12.1-.24.16-.36l.89-1.73c.06-.12.13-.23.2-.34l1.02-1.62c.07-.11.14-.21.22-.31l.71-.93c.35-.47.79-1.06,1.34-1.64.04-.04.07-.08.09-.1,1.04-1.1,1.66-2.48,1.8-3.99.32-3.59,1.19-7.07,2.58-10.35.84-2.02,1.93-4.03,3.21-5.95,1.26-1.89,2.72-3.67,4.34-5.28,2.17-2.19,4.71-4.13,7.55-5.75,0-.06,0-.13,0-.19-.03-1.88.16-3.72.57-5.45.25-1.05.58-2.07.99-3.04-1.17-3.49-1.91-7-2.21-10.43l-.27-3.19c-.15-1.71.68-3.36,2.15-4.26.73-.45,1.55-.67,2.38-.67s1.66.23,2.39.68l2.07,1.28c1.19-2.06,2.55-3.97,4.04-5.71.81-.95,1.7-1.89,2.61-2.77.32-.31.65-.61.99-.91.13-.11.53-.47.6-.53l.31-.25c.4-.33.8-.65,1.21-.94.41-.31.84-.6,1.27-.89l.27-.18c.25-.17.47-.3.69-.43l.2-.12c.3-.19.63-.38.96-.55,1.12-.62,2.34-1.19,3.62-1.69,3.51-1.36,7.22-2.04,11.02-2.04,1.61,0,3.24.13,4.83.38l.13.02c.15.02.3.04.45.04.97,0,1.91-.5,2.49-1.34,1-1.43,2.09-2.8,3.23-4.06,1.64-1.79,3.24-3.31,4.91-4.63,1.81-1.43,3.67-2.69,5.54-3.75,1.9-1.07,3.94-2.01,6.08-2.79,1.99-.73,4.15-1.33,6.4-1.76,2.5-.47,5.03-.71,7.55-.71,1.92,0,3.85.14,5.74.42.21.03.47.08.77.14.26.05.54.08.81.08,1.06,0,2.11-.39,2.96-1.11,9.72-8.15,22.08-12.64,34.81-12.64s25.14,4.49,34.86,12.64c.85.71,1.9,1.11,2.96,1.11.28,0,.55-.03.82-.08.3-.06.56-.1.74-.13,1.91-.28,3.84-.42,5.76-.42,2.51,0,5.05.24,7.53.71,2.27.44,4.43,1.03,6.44,1.77,2.12.77,4.17,1.71,6.07,2.78,1.87,1.05,3.73,2.31,5.54,3.74,1.68,1.33,3.28,2.84,4.91,4.63,1.15,1.27,2.24,2.63,3.24,4.07.59.84,1.52,1.34,2.49,1.34.15,0,.3-.01.45-.03l.15-.02c1.57-.25,3.2-.38,4.81-.38,3.8,0,7.51.69,11.02,2.05,1.28.49,2.5,1.06,3.62,1.68.34.18.66.36.99.56l.18.11c.22.13.44.26.65.41l.3.2c.43.29.87.58,1.28.9.42.3.82.62,1.21.94l.31.25c.07.06.47.41.6.53.34.3.68.6.99.91.92.87,1.8,1.81,2.63,2.79,1.48,1.72,2.83,3.64,4.03,5.69l2.07-1.28c.73-.45,1.56-.68,2.39-.68s1.65.22,2.38.67c1.47.9,2.3,2.55,2.15,4.26l-.27,3.19c-.3,3.43-1.04,6.94-2.21,10.43.41.97.73,1.99.98,3.04.41,1.73.6,3.57.57,5.47,0,.06,0,.11,0,.17,2.83,1.62,5.38,3.56,7.57,5.77,1.6,1.59,3.06,3.37,4.33,5.27,1.28,1.91,2.36,3.92,3.22,5.97,1.38,3.25,2.24,6.73,2.57,10.32.14,1.51.75,2.89,1.79,3.98.02.02.06.06.1.1.55.59.99,1.17,1.34,1.64l.71.93c.08.1.15.21.22.31l1.02,1.62c.07.11.13.22.19.33l.9,1.74c.06.12.11.24.16.36l.52,1.28c.12.28.29.69.43,1.19l.28.88c.18.52.28.98.36,1.33l.27,1.23c.02.09.04.18.05.26.05.28.08.57.12.85l.04.27c.13.79.17,1.51.2,2.15l.02.38c.04.5.03.94.02,1.27l-.03,1.34c0,.12-.01.24-.02.36l-.15,1.37c-.03.32-.07.75-.18,1.24l-.09.48c-.1.56-.23,1.25-.45,1.99-.23.85-.5,1.71-.82,2.55-.32.86-.16,1.81.42,2.49,2.69,3.17,4.84,6.78,6.41,10.79.74,1.94,1.34,3.97,1.77,6.05l.1.49c.08.38.15.76.21,1.15,0,0,.2,1.48.21,1.52.04.36.07.72.1,1.08,0,0,.04.5.05.55.02.36.03.73.05,1.09v.42c.09,4.48-.78,8.94-2.5,12.99-1.72,4.07-4.32,7.8-7.51,10.79-3.17,2.99-7.06,5.36-11.22,6.83-.02,0-.09.03-.11.04-2.07.7-3.24,2.86-2.71,5.01.08.33.16.67.23,1.01.78,3.54.96,7.24.53,10.97-.43,3.62-1.48,7.19-3.13,10.63-.81,1.66-1.77,3.26-2.85,4.79l-.26.35c-.2.28-.41.56-.62.83,0,0-.84,1.02-.86,1.05-.21.24-.43.48-.65.72,0,0-.3.33-.33.36-.22.23-.45.46-.68.69l-.26.26c-2.89,2.78-6.33,4.91-10.02,6.25-.76.27-1.07.77-1.19,1.04-.14.31-.26.79-.03,1.36.33.82.55,1.51.7,2.12l.31,1.42c.02.07.03.15.04.22.03.16.05.31.06.47,0,.02.08.66.08.66.06.47.12.94.16,1.41,0,.08.04.72.04.72.03.53.05,1.06.04,1.59v.81c0,.07,0,.14,0,.21l-.04.89c-.13,2.61-.66,5.35-1.57,8.14-1.75,5.25-4.89,9.97-9.1,13.69-4.13,3.65-9.23,6.15-14.75,7.24-.05,0-.62.11-.62.11-.51.09-1.03.17-1.54.23l-.84.1c-.34.03-.61.05-.88.06l-2.04.1c-.07,0-.25,0-.26,0-.42,0-.84-.01-1.27-.03l-.56-.02c-.13,0-.25-.01-.38-.03-.07,0-.14-.01-.21-.01-.78,0-1.49.49-1.78,1.23-.11.27-.2.48-.26.59l-.06.13c-.21.45-.43.9-.67,1.34l-.29.54c-.03.06-.46.78-.46.78-.23.4-.53.86-.84,1.32-2.48,3.68-5.78,6.76-9.59,8.98-1.99,1.14-3.99,2.02-5.99,2.65-2.07.65-4.22,1.08-6.41,1.27-.84.08-1.71.11-2.57.11-.74,0-1.5-.03-2.25-.09h0c-.56,0-1.02.34-1.23.84-1.42,3.47-3.32,6.56-5.66,9.23-1.16,1.33-2.45,2.59-3.82,3.74-1.46,1.22-3.04,2.29-4.7,3.18-3.33,1.8-7.09,2.92-10.85,3.23-.79.07-1.6.1-2.4.1Z"/>
  <polygon class="cls-4" points="46.14 57.87 53.3 64.11 63.71 70.37 68.2 74.92 80.36 76.09 88.7 82.86 96.24 88.07 100.93 88.07 109.39 89.89 114.07 93.27 124.61 91.84 118.37 77.39 120.32 68.68 127.22 56.71 136.72 54.23 152.2 56.46 168.73 54.23 180.83 54.23 187.21 58.4 194.24 68.55 194.24 74.27 192.8 82.34 190.84 90.43 196.97 93.27 201.26 92.49 207.38 88.98 211.94 87.55 216.1 88.85 222.87 85.07 230.08 77.92 235.49 75.44 244.86 74.92 250.69 70.5 262.43 61.91 267.11 54.88 260.21 44.99 251.63 40.13 245.51 37.79 234.97 40.13 226.38 31.2 218.18 24.69 207.9 20.27 197.23 20.27 186.17 20.27 174.85 10.77 156.63 6.99 141.14 9.99 131.38 15.71 130.21 21.53 121.75 20.79 110.89 19.74 99.17 20.63 89.35 28.46 83.3 37.79 80.36 41.09 71.37 39 63.58 39.14 55.98 42.78 48.74 50.13 46.14 57.87"/>
  <polygon class="cls-2" points="47.03 55.26 52.64 43.44 64.03 39.19 77.16 38.19 81.41 43.24 80.33 53.18 80.33 66.32 80.39 75.06 70.21 74.97 47.03 55.26"/>
  <polygon class="cls-2" points="267.11 55.26 261.21 43.44 249.23 39.19 235.42 38.19 230.95 43.24 232.09 53.18 232.09 66.32 232.02 75.06 242.73 74.97 267.11 55.26"/>
  <path class="cls-2" d="M86.6,42.62l7.63-5.59,7.71-2.74,9.47,2.45,6.58,3.63,4.48,4.9,2.6,10.43,8.98-1.97,7.81-6.51-7.03-17.54-8.59-10.31h-19l-12.23,3.77-7.68,5.6-7.03,8s2.36,6.88,6.3,5.88Z"/>
  <path class="cls-2" d="M226.32,42.62l-7.63-5.59-7.71-2.74-9.47,2.45-6.58,3.63-4.48,4.9-2.6,10.43-8.98-1.97-7.81-6.51,7.03-17.54,8.59-10.31h19s12.23,3.77,12.23,3.77l7.68,5.6,7.03,8s-2.36,6.88-6.3,5.88Z"/>
  <polygon class="cls-4" points="41.76 78.88 49.12 96.23 54.32 110.68 58.14 121.92 52.24 127.72 44.26 127.72 34.71 126.16 25.95 119.66 21.96 110.68 21.96 101 24.48 93.27 28.82 85.82 41.76 78.88"/>
  <polygon class="cls-4" points="269.57 84.52 254.99 116.56 255.68 124.6 261.06 128.07 274.42 128.59 279.54 126.34 284.75 121.92 290.39 112.63 291.43 106.9 289.53 96.84 287.52 90.51 283.53 85.04 278.5 81.31 272.43 80.1 269.57 84.52"/>
  <polygon class="cls-2" points="81.85 118.4 80.3 126.34 81.85 134.41 85.64 143.68 78.87 146.64 66.25 146.64 58.83 141.04 56.88 128.59 60.76 116.56 66.12 111.94 76.14 111.94 81.85 118.4"/>
  <polygon class="cls-2" points="231.4 118.66 232.95 128.16 230.01 135.84 229.55 141.95 232.95 146.51 242 145.99 250.63 142.86 256.12 134.93 254.99 125.95 250.63 114.56 243.56 111.94 237.68 111.5 230.01 115.54 231.4 118.66"/>
  <polygon class="cls-4" points="14.48 135.79 9.72 147.67 7.65 158.35 9.72 169.8 14.48 175.6 26.04 184.1 34.37 185.42 30.47 193.53 31.42 207.8 36.45 219.22 46.14 225.67 53.97 226.73 67.34 221.68 72.89 205.38 69.69 195.83 63.52 191.14 61.61 171.54 62.62 163.03 64.56 160.2 60.76 153.32 62.62 144.99 60.76 139.44 57.44 125.56 44.26 127.72 30.92 129.4 14.48 135.79"/>
  <polygon class="cls-4" points="255.77 131.11 253.86 139.09 251.43 145.16 251.43 153.14 248.83 160.2 250.63 164.42 251.43 172.73 248.83 187.33 245.71 195.66 239.63 205.38 242.84 218.32 252.49 225.67 263.23 226.73 275.2 220.95 281.49 212.4 282.78 201.38 281.49 184.1 292.56 181.43 302.62 171.71 306.44 160.2 304.88 148.87 298.77 139.26 293.34 133.77 283.4 129 274.42 128.59 257.34 127.07 255.77 131.11"/>
  <polygon class="cls-2" points="141.08 203.12 146.8 208.15 146.8 209.45 141.99 212.26 137.18 216.56 133.18 220.55 129.19 227.71 127.89 232.61 127.46 238.57 128.06 243.67 130.24 250.31 135.96 257.86 141.99 262.98 147.41 266.14 155.65 267.84 166.5 266.14 176.07 259.77 181.77 253.7 185.06 245.97 186.11 236.43 184.43 229.84 182.12 223.27 178.07 217.26 170.1 211.88 165.89 209.54 173.02 204.07 176.07 206.76 182.12 211.46 187.06 217.43 190.53 225.41 192.83 232.87 192.26 239.53 191.57 245.97 188.88 252.83 184.06 261.68 175 267.84 163.2 272.96 155.11 272.96 145.16 271.31 135.96 266.54 128.15 260.76 124.42 253.52 120.95 241.62 121.47 229.19 123.52 222.03 130.41 211.46 141.08 203.12"/>
  <polygon class="cls-4" points="137.83 179.43 137.24 180.64 136.52 181.62 134.88 182.9 130.71 184.9 125.29 187.63 123.38 192.71 122.95 197 123.47 199.95 125.12 202.81 128.11 205.2 130.58 205.72 132.97 205.38 135.05 204.37 136.7 201.9 142.77 204.72 146.07 207.24 149.41 209.93 153.96 211.46 156.35 212.01 160.6 211.46 165.33 208.63 171.79 203.12 176.07 201.9 176.97 202.49 178.43 204.31 180.34 205.22 184.8 205.38 188.88 201.82 189.84 197 189.97 191.95 186.13 186.98 179.66 184.25 177.69 182.62 174.14 178.51 170.86 175.16 165.28 174.18 157.17 175.29 151.14 174.49 143.49 175.09 137.83 179.43"/>
  <polygon class="cls-2" points="116.25 270.66 113.36 278.86 114.4 287.05 118.43 296.55 124.88 302.67 133.86 305.66 142.51 305.66 151.36 301.24 156.89 294.08 161.12 299.81 168.95 303.98 182.12 305.66 192.83 299.42 198.23 291.35 199.51 284.88 198.23 272.35 192.83 267.27 182.72 263.63 174.91 269.89 166.84 272.96 158.97 276.9 148.37 273.91 137.86 270.66 131.13 263.63 128.54 264.43 124.16 266.36 117.44 270.35 116.25 270.66"/>
  <polygon class="cls-4" points="100.72 253.26 93.54 261.76 84.51 267.49 86.42 277.21 95.44 284.88 104.12 286.75 111.42 286.75 114.4 280.85 116.25 270.66 116.25 266.49 112.02 261.94 107.83 256.93 100.72 253.26"/>
  <polygon class="cls-4" points="196.19 268.38 198.23 272.35 199.51 278.2 201.01 284.53 204.19 285.95 209.33 285.95 215.06 285.49 220.66 282.63 225.54 277.81 229.64 271.75 227.62 267.73 221.37 262.65 216.23 257.86 211.29 253.54 207.51 254.32 204.06 258.94 196.19 268.38"/>
  <polygon class="cls-2" points="56.88 225.11 51.13 233.57 49.46 243.67 50.5 252.57 55.92 259.77 65.73 266.14 80.57 268.83 90.85 262.46 98.55 255.83 102.69 249.27 102.69 230.05 100.01 215.74 96.15 210.74 93.77 211.46 89.87 214.5 75.1 223.27 67.68 226.35 66.06 222.25 56.88 225.11"/>
  <polygon class="cls-4" points="256.88 226 262.63 234.46 264.29 244.56 263.25 253.46 257.84 260.66 248.03 267.03 233.19 269.72 222.91 263.35 215.2 256.71 211.07 250.15 211.07 230.94 213.74 216.63 217.61 211.63 219.98 212.35 223.89 215.39 238.66 224.16 246.07 227.23 247.7 223.13 256.88 226"/>
  <polygon class="cls-2" points="255.9 225.11 261.65 233.57 263.32 243.67 262.28 252.57 256.86 259.77 247.05 266.14 232.22 268.83 221.94 262.46 214.23 255.83 210.09 249.27 210.09 230.05 212.77 215.74 216.64 210.74 219.01 211.46 222.91 214.5 237.68 223.27 245.1 226.35 246.73 222.25 255.9 225.11"/>
  <polygon class="cls-4" points="82.52 119.7 81.85 130.11 88.11 141.82 95.01 147.67 104.12 146.51 111.42 145.73 120.13 146.64 130.24 152.1 137.18 152.1 141.21 146.64 141.21 140.78 139.11 136.75 136.59 135.9 134.12 136.36 132.68 137.59 130.99 139.22 122.95 140.72 115.37 141.3 109.07 139.02 103.73 134.67 99.44 130.37 98.33 127.07 99.83 121.98 98.46 117.03 94.56 114.66 90 114.66 86.62 116.56 82.52 119.7"/>
  <polygon class="cls-4" points="230.25 119.7 230.91 130.11 224.65 141.82 217.75 147.67 208.65 146.51 201.35 145.73 192.64 146.64 182.53 152.1 175.58 152.1 171.56 146.64 171.56 140.78 173.65 136.75 176.18 135.9 178.65 136.36 180.08 137.59 181.77 139.22 189.82 140.72 197.39 141.3 203.7 139.02 209.04 134.67 213.33 130.37 214.44 127.07 212.94 121.98 214.31 117.03 218.21 114.66 222.76 114.66 226.15 116.56 230.25 119.7"/>
  <polygon class="cls-2" points="104.38 147.67 97.35 154.45 100.38 165.9 103.73 174.18 115.37 174.18 130.67 174.18 133.14 159.26 130.24 152.1 122.95 147.67 110.76 144.43 104.38 147.67"/>
  <polygon class="cls-2" points="207.87 146.92 214.9 153.7 211.87 165.16 208.52 173.44 196.88 173.44 181.59 173.44 179.11 158.52 182.02 151.36 189.31 146.92 201.5 143.68 207.87 146.92"/>
  <path class="cls-1" d="M119.54,156.65c-1.22-.96-2.69-1.46-4.16-1.45,1.48,0,2.93.71,3.78,1.84.43.56.73,1.2.86,1.86.14.66.12,1.32-.01,1.92-.27,1.23-1.02,2.17-1.87,2.76-.86.59-1.81.87-2.76.87-.96,0-1.9-.28-2.76-.88-.84-.6-1.59-1.53-1.86-2.76-.13-.61-.15-1.26-.02-1.92.14-.65.43-1.3.86-1.86.85-1.13,2.3-1.85,3.78-1.84-1.47,0-2.94.49-4.17,1.45-1.21.96-2.18,2.42-2.45,4.17-.13.86-.1,1.79.14,2.69.24.9.68,1.76,1.29,2.5.61.74,1.4,1.36,2.3,1.78.9.42,1.9.64,2.89.64.99,0,1.99-.22,2.88-.64.9-.42,1.68-1.04,2.3-1.78.62-.74,1.05-1.61,1.29-2.5.24-.9.27-1.82.14-2.68-.27-1.74-1.23-3.21-2.44-4.16Z"/>
  <path class="cls-1" d="M123.95,113.85c.22.05.44.12.66.18.22.06.44.12.66.2l.65.21.64.24c.84.34,1.66.7,2.48,1.14,1.64.85,3.24,1.87,4.9,2.91,1.65,1.05,3.38,2.11,5.25,3.03l.71.34.73.32c.47.22.99.39,1.49.57.5.18,1.03.31,1.54.46.53.11,1.06.23,1.6.31,2.17.33,4.35.13,6.34-.36,1.76-.44,3.41-1.05,5.02-1.78,0,0,.01,0,.02,0,0,0,.01,0,.02,0,1.61.73,3.27,1.35,5.02,1.78,1.99.49,4.17.69,6.34.36.54-.08,1.06-.2,1.6-.31.51-.15,1.04-.28,1.54-.46.5-.18,1.01-.35,1.49-.57l.73-.32.71-.34c1.87-.92,3.6-1.98,5.25-3.03,1.66-1.04,3.26-2.06,4.9-2.91.81-.43,1.64-.8,2.48-1.14l.64-.24.65-.21c.22-.08.43-.14.66-.2.22-.06.44-.13.66-.18,3.57-.92,7.41-1.02,11.38-.34-.84-.56-1.74-1.04-2.69-1.44-.95-.39-1.94-.7-2.95-.93-1.01-.22-2.05-.37-3.1-.43-.52-.03-1.05-.05-1.58-.03-.53,0-1.06.04-1.59.09-2.11.21-4.23.79-6.16,1.64-1.94.85-3.72,1.88-5.4,2.94-3.37,2.11-6.44,4.3-9.86,5.33-1.7.53-3.53.73-5.45.75-1.51.02-3.07-.07-4.65-.13.02-.01.05-.02.07-.03-.23,0-.45.01-.68.02h-.02s-.02,0-.02,0c-.23,0-.45-.02-.68-.02.02.01.05.02.07.03-1.58.06-3.14.15-4.65.13-1.92-.02-3.75-.22-5.45-.75-3.42-1.04-6.49-3.23-9.86-5.33-1.69-1.06-3.47-2.1-5.4-2.94-1.93-.85-4.05-1.43-6.16-1.64-.53-.06-1.06-.09-1.59-.09-.53-.02-1.06,0-1.58.03-1.05.06-2.09.22-3.1.43-1.01.23-2,.54-2.95.93-.95.39-1.85.88-2.69,1.44,3.97-.68,7.81-.58,11.38.34Z"/>
  <path class="cls-1" d="M202.04,156.65c-1.22-.96-2.7-1.45-4.17-1.45,1.48,0,2.93.71,3.78,1.84.43.56.72,1.21.86,1.86.13.66.11,1.31-.02,1.92-.27,1.22-1.02,2.16-1.86,2.76-.86.59-1.8.87-2.76.88-.96,0-1.9-.27-2.76-.87-.84-.6-1.59-1.54-1.87-2.76-.13-.61-.15-1.27-.01-1.92.14-.65.43-1.3.86-1.86.85-1.13,2.31-1.84,3.78-1.84-1.47,0-2.94.49-4.16,1.45-1.21.96-2.17,2.43-2.44,4.16-.13.86-.1,1.78.14,2.68.24.9.67,1.76,1.29,2.5.61.74,1.4,1.36,2.3,1.78.89.42,1.89.64,2.88.64.99,0,1.99-.22,2.89-.64.9-.42,1.69-1.03,2.3-1.78.62-.74,1.06-1.61,1.29-2.5.24-.9.27-1.82.14-2.69-.27-1.74-1.24-3.21-2.45-4.17Z"/>
  <polygon class="cls-4" points="74.37 184.1 76.08 189.69 76.37 197.04 75.37 207.97 72.01 216.75 68.76 224.89 72.01 225.15 80.21 221.83 88.8 214.8 96.15 209.86 97.35 206.6 88.08 195.54 83.4 188.97 77.48 183.11 74.37 184.1"/>
  <polygon class="cls-4" points="214.9 207.97 221.6 200.55 228.5 191.7 232.01 185.59 235 183.11 238.65 183.11 236.71 187.54 236.71 195.54 237.68 206.8 240.86 218.32 244.5 224.38 241.04 225.15 232.14 220.95 214.9 207.97"/>
  <polygon class="cls-2" points="23.03 110.92 25.9 118.12 31.38 124.15 32.28 127.31 28.77 130.87 20.44 134.01 16.01 134.64 15 129.64 13.54 123.32 14.52 117.4 16.53 113.3 19.4 110.44 23.03 110.92"/>
  <path class="cls-1" d="M308.65,157.16c-.04-.47-.08-.94-.13-1.4l-.19-1.37c-.07-.46-.17-.91-.25-1.36-.38-1.81-.89-3.59-1.55-5.31-1.35-3.43-3.22-6.66-5.6-9.47l-.03-.03c-1.66-1.95-2.12-4.64-1.23-7.04.27-.73.51-1.47.71-2.21.22-.7.32-1.43.46-2.14.08-.35.1-.72.14-1.08l.11-1.08.03-1.09c0-.36.03-.72,0-1.08-.04-.72-.06-1.44-.18-2.16-.05-.36-.09-.72-.15-1.07l-.24-1.06c-.08-.35-.15-.71-.27-1.05l-.32-1.04c-.09-.35-.26-.68-.39-1.02l-.41-1.01-.5-.98-.25-.49-.13-.24-.15-.23-.59-.94-.3-.47-.33-.44c-.45-.59-.87-1.21-1.4-1.77-.02-.02-.05-.05-.07-.08-1.73-1.83-2.79-4.19-3.02-6.7-.28-3.08-1.02-6.12-2.23-8.98-.76-1.82-1.71-3.56-2.81-5.2-1.1-1.65-2.36-3.19-3.77-4.59-2.05-2.07-4.43-3.83-7-5.25-1.22-.68-1.95-1.98-1.89-3.37,0-.19.01-.39.02-.59.02-1.43-.1-2.9-.45-4.35-.31-1.32-.8-2.62-1.48-3.84.09-.23.18-.45.26-.68,1.21-3.34,2.03-6.81,2.34-10.38l.27-3.19-2.81,1.74h0c-1.81,1.09-4.18.47-5.21-1.38-1.13-2.04-2.44-3.95-3.93-5.69-.74-.87-1.52-1.7-2.34-2.48-.4-.4-.85-.77-1.27-1.15-.45-.36-.88-.73-1.35-1.06-.46-.35-.94-.66-1.41-.98-.24-.16-.49-.3-.73-.45-.24-.15-.49-.29-.74-.42-1-.56-2.03-1.03-3.1-1.44-4.25-1.64-8.93-2.14-13.5-1.42l-.15.02c-2.86.45-5.7-.81-7.37-3.19-.89-1.27-1.84-2.47-2.88-3.61-1.36-1.49-2.81-2.88-4.37-4.13-1.57-1.24-3.22-2.37-4.95-3.35-1.73-.98-3.54-1.8-5.4-2.48-1.86-.69-3.77-1.2-5.71-1.57-3.88-.73-7.87-.83-11.77-.26-.14.02-.32.06-.55.1-2.7.53-5.47-.24-7.58-2.01-8.94-7.5-20.1-11.58-31.89-11.58,0,0-.01,0-.02,0s-.01,0-.02,0c-11.79,0-22.96,4.08-31.89,11.58-2.11,1.77-4.88,2.54-7.58,2.01-.23-.04-.41-.08-.55-.1-3.89-.57-7.89-.47-11.77.26-1.94.37-3.85.89-5.71,1.57-1.86.68-3.67,1.5-5.4,2.48-1.73.98-3.38,2.11-4.95,3.35-1.57,1.24-3.02,2.64-4.37,4.13-1.03,1.14-1.99,2.34-2.88,3.61-1.66,2.38-4.5,3.64-7.37,3.19l-.15-.02c-4.57-.72-9.25-.23-13.5,1.42-1.06.41-2.1.89-3.1,1.44-.25.13-.5.27-.74.42-.24.15-.49.29-.73.45-.47.32-.95.63-1.41.98-.47.33-.9.7-1.35,1.06-.42.38-.87.75-1.27,1.15-.82.78-1.6,1.61-2.34,2.48-1.49,1.74-2.81,3.65-3.93,5.69-1.03,1.85-3.39,2.47-5.21,1.38h0s-2.81-1.74-2.81-1.74l.27,3.19c.31,3.57,1.13,7.04,2.34,10.38.08.23.17.46.26.68-.68,1.22-1.17,2.52-1.48,3.84-.34,1.45-.47,2.92-.45,4.35,0,.2,0,.39.02.59.06,1.4-.67,2.7-1.89,3.37-2.58,1.43-4.95,3.18-7,5.25-1.41,1.4-2.68,2.94-3.77,4.59-1.1,1.64-2.05,3.38-2.81,5.2-1.21,2.86-1.96,5.9-2.23,8.98-.23,2.51-1.28,4.87-3.02,6.7-.03.03-.05.05-.07.08-.53.57-.95,1.19-1.4,1.77l-.33.44-.3.47-.59.94-.15.23-.13.24-.25.49-.5.98-.41,1.01c-.13.34-.3.66-.39,1.02l-.32,1.04c-.13.34-.19.7-.27,1.05l-.24,1.06c-.06.36-.1.72-.15,1.07-.12.71-.14,1.44-.18,2.16-.03.36,0,.72,0,1.08l.03,1.09.11,1.08c.04.36.06.73.14,1.08.14.71.24,1.44.46,2.14.2.75.43,1.48.71,2.21.89,2.4.44,5.09-1.23,7.04l-.03.03c-2.38,2.8-4.26,6.03-5.6,9.47-.66,1.72-1.17,3.5-1.55,5.31-.08.45-.19.9-.25,1.36l-.19,1.37c-.05.46-.09.94-.13,1.4-.03.47-.04.94-.06,1.41-.06,3.77.68,7.56,2.16,11.04,1.47,3.48,3.67,6.66,6.43,9.24,2.75,2.6,6.06,4.6,9.63,5.86.02,0,.04.01.05.02,4.31,1.46,6.75,5.97,5.66,10.4-.07.29-.14.58-.2.86-.68,3.11-.83,6.34-.46,9.52.37,3.18,1.32,6.29,2.71,9.18.71,1.44,1.54,2.82,2.46,4.13.24.32.46.66.72.97l.76.93c.26.31.55.61.82.92.28.3.58.58.87.88,2.37,2.28,5.24,4.05,8.34,5.18.02,0,.05.02.07.03,3.4,1.22,5.16,4.97,3.83,8.33-.23.57-.4,1.08-.5,1.5l-.19.89-.1.44c-.02.15-.04.3-.06.45-.07.6-.16,1.2-.21,1.8-.02.59-.08,1.18-.06,1.78v.89s.05.89.05.89c.12,2.37.62,4.71,1.35,6.96,1.5,4.5,4.24,8.55,7.78,11.68,3.55,3.14,7.96,5.27,12.62,6.18.58.09,1.17.21,1.76.27l.88.1c.29.03.58.03.88.05l1.75.09c.58,0,1.17-.03,1.75-.04,0,0,0,0,0,0,2.89-.31,5.63,1.36,6.7,4.07.05.11.08.2.1.25.2.42.39.85.62,1.25l.33.62.36.6c.23.4.49.79.75,1.18,2.08,3.08,4.87,5.66,8.07,7.53,1.61.92,3.3,1.69,5.07,2.24,1.77.56,3.59.92,5.45,1.08,1.35.12,2.71.13,4.07.02,2.52-.19,4.84,1.32,5.79,3.66,0,.01.01.03.02.04,1.17,2.87,2.8,5.57,4.85,7.9,1.02,1.17,2.13,2.26,3.32,3.26,1.22,1.01,2.54,1.91,3.94,2.66,2.8,1.51,5.91,2.44,9.08,2.7,3.16.27,6.38-.1,9.4-1.08,3.02-.98,5.84-2.58,8.22-4.67l.87-.81.83-.85.78-.89.74-.97c.44-.54.79-1.15,1.16-1.75,0,.01.01.02.02.04,0-.01.01-.02.02-.04.36.6.71,1.21,1.15,1.75l.74.97.78.89.83.85.87.81c2.38,2.1,5.21,3.7,8.22,4.67,3.02.98,6.23,1.35,9.4,1.08,3.17-.26,6.28-1.19,9.08-2.7,1.4-.75,2.72-1.65,3.94-2.66,1.2-1,2.3-2.09,3.32-3.26,2.05-2.34,3.67-5.03,4.85-7.9,0-.01.01-.03.02-.04.95-2.34,3.27-3.85,5.79-3.66,1.36.1,2.72.1,4.07-.02,1.85-.16,3.68-.52,5.45-1.08,1.77-.56,3.46-1.32,5.07-2.24,3.2-1.86,5.98-4.44,8.07-7.53.26-.39.52-.77.75-1.18l.36-.6.33-.62c.23-.41.42-.83.62-1.25.02-.05.06-.13.1-.25,1.07-2.71,3.81-4.38,6.7-4.07,0,0,0,0,0,0,.58.01,1.17.04,1.75.04l1.75-.09c.29-.02.58-.02.88-.05l.88-.1c.59-.06,1.17-.18,1.76-.27,4.65-.91,9.07-3.05,12.62-6.18,3.54-3.13,6.28-7.18,7.78-11.68.73-2.25,1.23-4.59,1.35-6.96l.04-.89v-.89c.02-.59-.04-1.18-.06-1.78-.06-.6-.14-1.2-.21-1.8-.02-.15-.03-.3-.06-.45l-.1-.44-.19-.89c-.1-.42-.27-.93-.5-1.5-1.33-3.36.43-7.1,3.83-8.33.02,0,.05-.02.07-.03,3.1-1.12,5.97-2.9,8.34-5.18.29-.29.59-.58.87-.88.27-.3.56-.61.82-.92l.76-.93c.25-.31.48-.65.72-.97.93-1.31,1.76-2.69,2.46-4.13,1.39-2.89,2.34-6,2.71-9.18.37-3.18.22-6.41-.46-9.52-.06-.29-.13-.58-.2-.86-1.09-4.42,1.35-8.93,5.66-10.4.02,0,.04-.01.05-.02,3.57-1.26,6.88-3.27,9.63-5.86,2.76-2.59,4.96-5.76,6.43-9.24,1.48-3.48,2.22-7.27,2.16-11.04-.02-.47-.03-.94-.06-1.41ZM290.34,115.67c.31-.76.59-1.53.83-2.31.43-1.38,2.13-1.89,3.22-.93,0,0,0,0,.01.01l.35.31c.11.11.21.23.31.35l.62.7.15.18.13.19.26.38c.18.26.36.51.53.78l.44.83c.14.28.3.55.41.85.22.59.49,1.16.62,1.78l.25.92.15.94c.21,1.25.17,2.53.06,3.78-.04.31-.11.62-.17.93-.07.31-.1.62-.2.92-.2.6-.33,1.21-.62,1.77-.48,1.13-1.12,2.19-1.89,3.12-.62.76-1.73.93-2.57.41-.22-.14-.45-.28-.67-.41-2.71-1.63-5.66-2.83-8.71-3.59-1.13-.28-1.44-1.72-.54-2.46l.02-.02c1.52-1.27,2.92-2.69,4.1-4.29,1.17-1.6,2.17-3.32,2.91-5.16ZM277.01,83.09c1.38.79,2.68,1.71,3.89,2.75,1.3,1.14,2.48,2.41,3.53,3.8,1.05,1.39,1.94,2.89,2.69,4.47,1.5,3.16,2.3,6.64,2.41,10.15.08,3.5-.57,7.05-1.88,10.29-1.34,3.2-3.48,6.06-6.21,8.19-1.37,1.06-2.86,1.95-4.44,2.64-1.58.69-3.25,1.18-4.94,1.43-1.69.26-3.42.33-5.11.13-.85-.08-1.68-.25-2.51-.43-.82-.21-1.64-.44-2.43-.75-1.12-.42-2.18-.96-3.16-1.61-1.9-1.27-2.01-4.01-.29-5.51l.03-.03c1.03-.9,2.02-1.85,2.97-2.86.94-1.01,1.85-2.08,2.63-3.31.2-.3.38-.65.56-.97.18-.33.33-.71.48-1.07.25-.68.47-1.35.64-2.03.36-1.36.59-2.71.77-4.05.19-1.33.33-2.64.5-3.92.15-1.16,1.32-1.91,2.44-1.56h0s.47.23.47.23c1.25.62,2.41,1.54,3.32,2.73.91,1.18,1.58,2.6,1.93,4.14.34,1.54.35,3.21-.03,4.84.76-1.49,1.21-3.18,1.26-4.94.06-1.76-.28-3.57-1.01-5.27-.73-1.7-1.88-3.26-3.34-4.54l-.56-.48c-.2-.14-.4-.28-.6-.42-.2-.14-.4-.29-.61-.41l-.65-.36h-.01c-.65-.38-.94-1.17-.68-1.88.37-1.02.78-2.04,1.21-3.06.48-1.15,1.2-2.98,1.83-4.61.76-1.96,3.08-2.78,4.9-1.74ZM239.78,40.06c.07-.02.13-.04.2-.05,3.82-1.04,8.03-.82,11.76.65,1.86.73,3.62,1.75,5.16,3.02.39.31.75.66,1.12.99.18.17.35.36.52.53.17.18.34.36.51.55.68.75,1.29,1.55,1.86,2.38.42.61.83,1.24,1.23,1.86,2.39,3.81,1.05,8.84-2.89,11l-.05.03c-1.54.84-3.12,1.68-4.7,2.61-.79.46-1.58.94-2.36,1.46-.78.52-1.56,1.05-2.31,1.65-.75.59-1.48,1.22-2.18,1.9-.7.69-1.35,1.43-1.92,2.23-.1.13-.19.27-.28.4-.48.71-1.33,1.06-2.17.89-.17-.03-.35-.07-.52-.09-1.11-.17-2.22-.19-3.3-.11-.71.05-1.65.25-2.6.48-1.61.4-3.03-1.12-2.53-2.71v-.04c.48-1.56.83-3.16,1.05-4.77.47-3.54-.78-8.96-2.03-13.17-1.49-5,1.41-10.28,6.43-11.7ZM231.28,55.97c.58,2.78.73,5.67.38,8.5-.17,1.42-.44,2.82-.83,4.19-.4,1.37-.91,2.71-1.53,4-.86,1.83-1.95,3.54-3.21,5.12-.23.19-.46.39-.68.59-.78.7-1.52,1.45-2.2,2.27-.34.41-.67.84-.98,1.28-.29.43-.53.82-.76,1.13-.22.31-.42.54-.61.71-.2.18-.48.35-.83.51-.36.16-.77.32-1.24.5-.47.18-.99.39-1.47.63-.34.17-.68.36-1.01.56h0c-1.1-.48-2.29-.76-3.47-.84-1.18-.09-2.35.02-3.46.25-1.12.22-2.18.59-3.19,1.03-1.01.44-1.97.97-2.87,1.58-.04.03-.08.06-.12.08-1.93,1.31-4.28,1.86-6.58,1.49h-.04s-.03-.01-.05-.01c-1.94-.27-3.03-2.35-2.16-4.1,1.16-2.35,1.96-4.88,2.31-7.49,0-.02,0-.05.01-.07.46-3.22,3.26-5.6,6.51-5.41.91.05,1.83.03,2.73-.07,1.69-.18,3.34-.68,4.87-1.39,1.53-.72,2.96-1.67,4.17-2.85.15-.15.32-.28.46-.44l.43-.49c.14-.17.29-.32.42-.49l.38-.53c.12-.18.26-.35.36-.54l.31-.57c.1-.19.22-.37.3-.57l.26-.59c.64-1.59.95-3.31.87-4.99-.08-1.68-.52-3.32-1.29-4.76-.77-1.44-1.86-2.67-3.16-3.54,1.75,2.57,2.48,5.5,2.19,8.26-.29,2.76-1.56,5.26-3.56,7.06-.99.94-2.16,1.69-3.4,2.24-1.24.55-2.57.93-3.92,1.04-2.7.24-5.49-.35-7.77-1.78-.92-.57-1.77-1.22-2.52-2.02-.5-1.3-1.09-2.56-1.79-3.76-.63-1.07-1.34-2.1-2.11-3.07-.01-.03-.03-.07-.05-.09l-.24-1c-.1-.33-.11-.68-.17-1.02l-.07-.51c-.03-.17-.05-.34-.05-.51l-.04-1.03v-.26c-.01-.09,0-.17,0-.26l.03-.51.03-.51v-.26s.05-.25.05-.25l.15-1.02.04-.25.06-.25.13-.5.12-.5.06-.25.09-.24.34-.97.09-.24.11-.23.22-.46.22-.46.11-.23c.04-.07.09-.15.13-.22l.53-.88c.16-.3.39-.56.59-.84.21-.27.39-.56.62-.81l.69-.76c.12-.13.23-.25.35-.38l.38-.36c1.02-.96,2.14-1.8,3.33-2.53,2.38-1.46,5.06-2.42,7.82-2.79,2.76-.37,5.6-.18,8.28.58,2.68.76,5.2,2.06,7.36,3.83.26.23.53.45.79.68.25.24.51.48.76.72l.74.77c.25.26.47.54.7.8.91,1.09,1.75,2.24,2.48,3.46.72,1.22,1.34,2.51,1.86,3.83.52,1.32.94,2.69,1.23,4.08ZM187.07,24.5c1.51-.92,3.13-1.68,4.81-2.25,1.67-.57,3.44-.95,5.22-1.21,7.12-1,14.55.65,20.52,4.52,1.5.95,2.91,2.04,4.19,3.25,1.29,1.21,2.48,2.51,3.52,3.92,1.53,2.06,2.78,4.31,3.69,6.67.18.46,0,.98-.41,1.24l-.03.02c-.41.26-.94.19-1.27-.16l-.25-.27c-.29-.29-.6-.58-.9-.86-.31-.28-.63-.55-.94-.82-2.56-2.12-5.58-3.7-8.79-4.58-3.21-.89-6.59-1.11-9.88-.65-3.29.45-6.48,1.61-9.31,3.36-1.41.88-2.73,1.9-3.92,3.05l-.45.43c-.15.15-.28.31-.43.47l-.84.94c-.27.32-.51.68-.76,1.01-.24.35-.51.67-.71,1.05l-.64,1.09c-.05.09-.11.18-.16.28l-.13.29-.26.58-.26.58-.13.29-.1.3-.41,1.2-.1.3-.08.31-.15.62-.15.62-.07.31s0,0,0,0c-.16,1.74-2.01,2.82-3.59,2.06-1.13-.55-2.3-1-3.51-1.33-.01,0-.02,0-.04-.01-2.56-.72-4.43-2.94-4.56-5.59-.06-1.32,0-2.65.16-3.97.23-1.71.64-3.41,1.24-5.05.6-1.64,1.4-3.21,2.36-4.68,1.92-2.94,4.5-5.48,7.52-7.32ZM140.02,12.36c5.32-2.1,10.97-3.14,16.61-3.14,5.64,0,11.29,1.04,16.61,3.14,6.73,2.65,8.87,11.21,4.06,16.61-.25.29-.48.56-.67.82-2.38,3.23-4.13,6.97-5.04,10.94-.23.94-.4,1.9-.53,2.86-.36,2.66-17.08,13.25-28.85,0-.65-.73-.31-1.92-.53-2.86-.92-3.98-2.67-7.71-5.04-10.94-.19-.26-.42-.54-.67-.82-4.81-5.4-2.66-13.96,4.06-16.61ZM84.24,39.42c.91-2.36,2.16-4.61,3.69-6.67,1.04-1.41,2.24-2.71,3.52-3.92,1.28-1.21,2.69-2.3,4.19-3.25,5.97-3.88,13.4-5.53,20.52-4.52,1.78.25,3.55.63,5.22,1.21,1.68.57,3.3,1.32,4.81,2.25,3.03,1.84,5.61,4.38,7.53,7.32.96,1.47,1.76,3.04,2.36,4.68.6,1.64,1.01,3.34,1.24,5.05.17,1.32.22,2.65.16,3.97-.13,2.66-2,4.88-4.56,5.59-.01,0-.02,0-.04.01-1.21.34-2.38.79-3.51,1.33-1.57.77-3.43-.31-3.59-2.06,0,0,0,0,0,0l-.07-.31-.15-.62-.15-.62-.07-.31-.1-.3-.41-1.2-.1-.3-.13-.29-.26-.58-.26-.58-.13-.29c-.05-.09-.1-.18-.16-.28l-.64-1.09c-.2-.37-.47-.7-.71-1.05-.25-.34-.49-.69-.76-1.01l-.84-.94c-.14-.16-.28-.32-.43-.47l-.45-.43c-1.2-1.15-2.51-2.17-3.92-3.05-2.83-1.75-6.02-2.91-9.31-3.36-3.29-.46-6.68-.24-9.88.65-3.21.88-6.23,2.46-8.79,4.58-.31.27-.63.54-.94.82-.3.29-.61.57-.9.86l-.25.27c-.33.35-.86.42-1.27.16l-.03-.02c-.42-.26-.58-.78-.41-1.24ZM81.98,55.97c.29-1.39.7-2.76,1.23-4.08.52-1.32,1.14-2.6,1.86-3.83.73-1.22,1.56-2.37,2.48-3.46.24-.27.46-.54.7-.8l.74-.77c.25-.25.51-.48.76-.72.26-.23.53-.45.79-.68,2.15-1.77,4.68-3.07,7.36-3.83,2.68-.76,5.52-.96,8.28-.58,2.77.37,5.45,1.33,7.82,2.79,1.19.72,2.31,1.57,3.33,2.53l.38.36c.12.12.23.25.35.38l.69.76c.23.26.41.54.62.81.2.28.43.54.59.84l.53.88c.04.07.09.15.13.22l.11.23.22.46.22.46.11.23.09.24.34.97.09.24.06.25.12.5.13.5.06.25.04.25.15,1.02.04.25v.26s.04.51.04.51l.03.51c0,.09.01.17.01.26v.26s-.05,1.03-.05,1.03c0,.17-.02.34-.05.51l-.07.51c-.06.34-.07.69-.17,1.02l-.24,1s-.03.07-.05.09c-.77.97-1.48,2-2.11,3.07-.69,1.21-1.29,2.47-1.79,3.76-.75.79-1.6,1.45-2.52,2.02-2.28,1.44-5.07,2.02-7.77,1.78-1.36-.12-2.68-.5-3.92-1.04-1.24-.55-2.41-1.29-3.4-2.24-2-1.79-3.27-4.3-3.56-7.06-.29-2.75.44-5.68,2.19-8.26-1.3.87-2.39,2.1-3.16,3.54-.77,1.44-1.22,3.08-1.29,4.76-.08,1.68.22,3.4.87,4.99l.26.59c.08.2.2.38.3.57l.31.57c.11.19.24.36.36.54l.38.53c.13.17.28.33.42.49l.43.49c.14.16.31.29.46.44,1.2,1.18,2.63,2.14,4.17,2.85,1.53.71,3.18,1.21,4.87,1.39.9.1,1.82.12,2.73.07,3.25-.18,6.05,2.19,6.51,5.41,0,.02,0,.05.01.07.36,2.61,1.15,5.15,2.31,7.49.87,1.75-.22,3.83-2.16,4.1-.02,0-.03,0-.05,0h-.04c-2.3.38-4.65-.17-6.58-1.48-.04-.03-.08-.06-.12-.08-.9-.61-1.86-1.14-2.87-1.58-1.01-.45-2.07-.81-3.19-1.03-1.12-.22-2.28-.34-3.46-.25-1.18.08-2.37.35-3.47.83h0c-.33-.2-.66-.39-1.01-.56-.48-.24-1-.45-1.47-.63-.47-.18-.88-.34-1.24-.5-.35-.16-.64-.33-.83-.51-.19-.17-.39-.4-.61-.71-.22-.31-.46-.69-.76-1.13-.31-.44-.64-.87-.98-1.28-.68-.82-1.42-1.57-2.2-2.27-.22-.2-.45-.4-.68-.59-1.27-1.58-2.36-3.29-3.21-5.12-.61-1.29-1.13-2.63-1.53-4-.39-1.37-.67-2.78-.83-4.19-.35-2.83-.2-5.72.38-8.5ZM51.12,50c.39-.63.81-1.25,1.23-1.86.57-.83,1.18-1.63,1.86-2.38.17-.19.34-.38.51-.55.17-.18.34-.36.52-.53.37-.33.73-.68,1.12-.99,1.54-1.28,3.29-2.29,5.16-3.02,3.73-1.47,7.94-1.69,11.76-.65.07.02.13.04.2.05,5.02,1.42,7.92,6.7,6.43,11.7-1.25,4.21-2.5,9.62-2.03,13.17.22,1.62.56,3.21,1.04,4.77v.04c.51,1.59-.91,3.11-2.52,2.71-.95-.24-1.89-.43-2.6-.48-1.08-.08-2.19-.06-3.3.11-.17.03-.35.06-.52.09-.84.17-1.69-.18-2.17-.89-.09-.14-.18-.27-.28-.4-.57-.8-1.22-1.54-1.92-2.23-.7-.68-1.43-1.3-2.18-1.9-.75-.6-1.53-1.13-2.31-1.65-.78-.52-1.57-1-2.36-1.46-1.58-.93-3.17-1.76-4.7-2.61l-.05-.03c-3.94-2.16-5.28-7.19-2.89-11ZM42.76,59.05c1.46,1.08,2.95,2.12,4.48,3.09,1.53.98,3.09,1.91,4.68,2.79,1.59.88,3.17,1.7,4.69,2.53,1.52.84,3,1.68,4.36,2.63.68.47,1.34.97,1.96,1.49.62.51,1.2,1.06,1.77,1.64,1.12,1.16,2.14,2.43,2.98,3.85.85,1.42,1.48,2.99,1.87,4.83.77-1.72.83-3.77.42-5.68-.02-.07-.04-.14-.05-.21,1.11-.15,2.27-.13,3.45.05,1.66.24,3.33.76,4.95,1.43,1.62.67,3.19,1.52,4.66,2.5,1.47.98,2.86,2.09,4.04,3.33.29.31.57.63.84.96.28.34.58.74.96,1.18.38.43.85.91,1.44,1.3.58.39,1.18.63,1.72.81.54.18,1.04.3,1.49.41.45.11.83.21,1.24.35.81.26,1.59.62,2.35,1.05,3.03,1.74,5.55,4.67,6.78,8.36.04-1.96-.47-3.95-1.36-5.78-.47-.94-1.05-1.84-1.72-2.68.73,0,1.48.07,2.24.25.79.19,1.59.44,2.36.79.77.35,1.53.76,2.26,1.22.37.23.72.48,1.07.74.36.27.71.55,1.06.84.7.58,1.39,1.2,2.08,1.85,1.39,1.29,2.76,2.69,4.27,4.04.75.67,1.53,1.34,2.36,1.96.83.61,1.68,1.21,2.58,1.72,1.77,1.05,3.65,1.9,5.58,2.54,1.94.64,3.93,1.04,5.93,1.23,2,.18,4.01.15,5.96-.16-1.95-.28-3.85-.67-5.69-1.23-1.83-.55-3.6-1.26-5.28-2.1-1.68-.84-3.27-1.83-4.75-2.93-1.49-1.11-2.83-2.33-4.13-3.7-.53-.55-1.06-1.12-1.6-1.7.25-.1.51-.19.76-.28,1.18-.38,2.41-.73,3.68-.96.31-.07.63-.12.96-.17.32-.05.64-.11.97-.15.65-.07,1.3-.16,1.96-.21,1.31-.12,2.65-.15,3.98-.16,2.68.01,5.38.21,8.09.55,1.37.17,2.75.33,4.15.35,1.39.02,2.81-.1,4.12-.53-1.36.19-2.72.07-4.05-.17-1.33-.25-2.62-.63-3.94-1.03-2.64-.81-5.35-1.49-8.12-1.98h-.03c-2.12-.36-3.99-1.61-5.14-3.43-1.74-2.77-2.84-5.9-3.16-9.11-.25-2.27-.1-4.57.39-6.78.47-2.22,1.34-4.33,2.5-6.27.59-.96,1.26-1.87,1.99-2.73.36-.43.76-.84,1.15-1.24l1.22-1.1c1.68-1.39,3.66-2.4,5.76-2.97,2.1-.58,4.31-.71,6.47-.43,2.16.29,4.25,1.02,6.11,2.15.49.25.9.61,1.35.92l.33.24c.11.08.2.18.31.27l.61.55.31.27c.1.09.18.19.27.29l.53.58c.17.2.31.42.48.62.15.21.33.41.45.64l.41.67c.07.11.13.23.19.35l.17.35.17.35.09.18.07.19.27.74.07.18.05.19.1.38.1.38.05.19.03.2.12.78c.03.13.04.26.04.39l.02.4c.06.53.01,1.06,0,1.58,0,.27-.06.52-.08.79-.04.26-.05.53-.12.78l-.17.78c-.05.26-.16.5-.24.76-.14.51-.38.99-.59,1.48-.05.12-.11.24-.18.35l-.2.35-.2.35c-.06.12-.13.23-.21.34-.32.43-.6.89-.97,1.27-.18.2-.35.41-.53.6l-.56.53c-.18.18-.4.32-.6.48-.1.08-.2.16-.31.23l-.33.2c-1.72,1.13-3.83,1.64-5.94,1.55-1.06-.05-2.11-.28-3.11-.67-.51-.17-.99-.43-1.47-.68l-.69-.44c-.23-.15-.44-.33-.66-.49-.11-.09-.23-.16-.32-.26l-.29-.27c-.15-.14-.37-.37-.51-.53l-.05-.06c-.09-.1-.19-.2-.27-.31l-.24-.33c-.17-.21-.3-.45-.44-.69-.55-.95-.91-2.04-1.07-3.18-.15-1.14-.08-2.34.21-3.51.3-1.17.85-2.31,1.61-3.35-2.09,1.51-3.52,4.1-3.7,6.9-.1,1.4.1,2.84.6,4.2.13.34.25.68.43,1l.25.49c.08.16.19.31.28.47l.3.46c.1.15.22.29.34.44l.35.43c.12.15.25.26.37.4,1.96,2.12,4.73,3.54,7.67,3.98,2.94.41,6.07-.11,8.7-1.65l.49-.28c.16-.1.31-.21.47-.32.31-.22.63-.43.92-.68l.86-.75c.27-.26.51-.53.76-.8.52-.52.94-1.13,1.39-1.72.12-.14.22-.3.31-.46l.29-.47.29-.47c.1-.16.19-.32.27-.49.02-.04.04-.09.06-.13,0,.01.01.03.02.05,0-.02.01-.03.02-.05.02.04.04.09.06.13.08.17.17.33.27.49l.29.47.29.47c.09.16.19.31.31.46.45.59.87,1.2,1.39,1.72.25.27.49.54.76.8l.86.75c.29.25.61.45.92.68.16.11.31.22.47.32l.49.28c2.63,1.53,5.76,2.06,8.7,1.65,2.94-.44,5.71-1.86,7.67-3.98.12-.13.25-.25.37-.4l.35-.43c.11-.15.23-.28.34-.44l.3-.46c.1-.16.2-.31.28-.47l.25-.49c.17-.32.3-.66.43-1,.5-1.36.7-2.8.6-4.2-.18-2.8-1.61-5.4-3.7-6.9.76,1.04,1.3,2.18,1.61,3.35.3,1.18.37,2.37.21,3.51-.16,1.14-.52,2.23-1.07,3.18-.14.24-.27.48-.44.69l-.24.33c-.08.11-.18.2-.27.31l-.05.06c-.13.15-.36.39-.51.53l-.29.27c-.09.09-.22.17-.32.26-.22.16-.43.34-.66.49l-.69.44c-.48.25-.96.51-1.47.68-1,.38-2.05.62-3.11.67-2.11.1-4.22-.42-5.94-1.55l-.33-.2c-.11-.07-.2-.16-.31-.23-.2-.16-.41-.3-.6-.48l-.56-.53c-.18-.19-.35-.4-.53-.6-.38-.39-.65-.84-.97-1.27-.08-.11-.15-.22-.21-.34l-.2-.35-.2-.35c-.07-.11-.13-.23-.18-.35-.21-.49-.45-.96-.59-1.48-.07-.25-.19-.5-.24-.76l-.17-.78c-.07-.26-.08-.52-.12-.78-.02-.26-.09-.52-.08-.79-.01-.53-.06-1.06,0-1.58l.02-.4c0-.13.01-.26.04-.39l.12-.78.03-.2.05-.19.1-.38.1-.38.05-.19.07-.18.27-.74.07-.19.09-.18.17-.35.17-.35c.05-.12.11-.24.19-.35l.41-.67c.12-.23.3-.43.45-.64.16-.21.3-.43.48-.62l.53-.58c.09-.1.17-.2.27-.29l.31-.27.61-.55c.1-.09.2-.19.31-.27l.33-.24c.45-.31.86-.67,1.35-.92,1.86-1.13,3.95-1.86,6.11-2.15,2.16-.28,4.37-.15,6.47.43,2.1.57,4.07,1.58,5.75,2.97l1.22,1.1c.39.41.78.81,1.15,1.24.73.86,1.4,1.76,1.99,2.73,1.16,1.93,2.03,4.05,2.5,6.27.49,2.21.65,4.51.39,6.78-.32,3.22-1.42,6.35-3.16,9.11-1.14,1.82-3.01,3.07-5.14,3.43h-.03c-2.77.5-5.49,1.18-8.12,1.99-1.31.39-2.61.78-3.94,1.03-1.32.25-2.68.37-4.05.17,1.31.42,2.72.55,4.12.53,1.4-.02,2.79-.19,4.15-.35,2.71-.34,5.41-.54,8.09-.55,1.34,0,2.67.04,3.98.16.66.04,1.31.13,1.96.21.32.04.64.1.97.15.32.05.64.1.96.17,1.27.23,2.5.58,3.68.96.26.09.51.18.76.28-.53.58-1.06,1.15-1.6,1.7-1.3,1.37-2.64,2.59-4.13,3.7-1.48,1.1-3.07,2.09-4.75,2.93-1.68.84-3.44,1.54-5.28,2.1-1.83.56-3.73.95-5.69,1.23,1.95.31,3.96.34,5.96.16,2-.19,4-.59,5.93-1.23,1.93-.64,3.81-1.49,5.58-2.54.89-.52,1.74-1.11,2.58-1.72.83-.62,1.61-1.29,2.36-1.96,1.5-1.35,2.88-2.74,4.27-4.04.69-.65,1.38-1.27,2.08-1.85.35-.29.7-.57,1.06-.84.36-.26.71-.51,1.07-.74.73-.46,1.49-.87,2.26-1.22.77-.35,1.57-.6,2.36-.79.76-.17,1.51-.25,2.24-.25-.67.83-1.25,1.73-1.72,2.68-.89,1.83-1.41,3.82-1.36,5.78,1.23-3.69,3.75-6.62,6.78-8.36.76-.43,1.54-.79,2.35-1.05.41-.13.79-.24,1.24-.35.45-.11.95-.22,1.49-.41.54-.18,1.14-.42,1.72-.81.59-.39,1.06-.87,1.44-1.3.38-.44.69-.84.96-1.18.27-.33.54-.64.84-.96,1.18-1.24,2.57-2.35,4.04-3.33,1.47-.98,3.04-1.83,4.66-2.5,1.62-.68,3.29-1.19,4.95-1.43,1.18-.17,2.34-.2,3.45-.05-.02.07-.04.14-.05.21-.4,1.92-.35,3.96.42,5.68.39-1.83,1.02-3.41,1.87-4.83.84-1.42,1.86-2.69,2.98-3.85.57-.58,1.15-1.13,1.77-1.64.62-.53,1.28-1.02,1.96-1.49,1.36-.95,2.84-1.79,4.36-2.63,1.52-.83,3.1-1.65,4.69-2.53,1.59-.88,3.15-1.81,4.68-2.79,1.53-.97,3.02-2.01,4.48-3.09.34-.25.67-.5,1.01-.75-.06.24-.11.48-.17.73-.39,1.59-.88,3.16-1.45,4.7-1.16,3.07-2.67,6.01-4.57,8.61-1.89,2.6-4.44,5.03-6.36,8.27-.48.81-.9,1.67-1.24,2.53-.35.86-.64,1.73-.89,2.59-.51,1.72-.88,3.42-1.29,5.04-.41,1.62-.84,3.17-1.46,4.57-.61,1.4-1.41,2.6-2.44,3.55-1.03.95-2.34,1.69-3.8,2.34-1.46.65-3.07,1.21-4.72,1.89-.82.34-1.66.72-2.49,1.17-.83.44-1.64.98-2.38,1.55-1.5,1.15-2.79,2.53-3.88,4.01-.34.46-.79,1.2-1.26,2.02-1.17,2.05-3.77,2.74-5.84,1.61-.04-.02-.08-.04-.11-.06-.81-.4-1.67-.7-2.57-.91-.89-.2-1.82-.32-2.75-.29-.94.03-1.88.18-2.76.46-.88.28-1.71.68-2.48,1.16-.77.48-1.46,1.09-2.07,1.75-.62.66-1.13,1.43-1.52,2.26-.39.83-.67,1.71-.77,2.63-.11.92-.03,1.85.18,2.72.11.39.24.76.39,1.13.73,1.68.66,3.6-.27,5.17l-.04.07c-.66,1.1-1.45,2.14-2.33,3.1v.02c-.47.49-1.29.14-1.24-.53.04-.55.05-1.11.02-1.67-.09-1.59-.48-3.22-1.28-4.7-.4-.73-.9-1.42-1.5-2.04-.6-.61-1.27-1.12-1.99-1.53-1.44-.81-3.04-1.25-4.65-1.29-1.6-.05-3.22.29-4.65,1.06-.72.38-1.37.86-1.94,1.45-.58.59-1.04,1.27-1.37,1.99-.67,1.44-.87,3.11-.43,4.64.22.75.61,1.48,1.14,2.05.52.57,1.15,1.02,1.83,1.3.68.29,1.41.44,2.13.42.72-.03,1.42-.22,1.99-.6-1.31.42-2.68.08-3.68-.63-.5-.36-.94-.8-1.25-1.29-.31-.5-.48-1.04-.54-1.61-.13-1.13.2-2.28.81-3.22.31-.46.68-.88,1.09-1.21.43-.33.91-.6,1.42-.8,2.03-.8,4.53-.45,6.27.74.88.6,1.53,1.35,1.96,2.3.45.93.66,2,.68,3.11.02,1.11-.14,2.25-.44,3.35-.08.27-.16.55-.26.81-.05.13-.1.27-.15.4l-.15.35c-.21.45-.48.88-.81,1.29-1.31,1.64-3.62,2.78-6.06,3.28-1.23.24-2.5.35-3.76.28-.63-.03-1.26-.11-1.88-.22-.62-.12-1.26-.29-1.9-.47-1.29-.36-2.6-.77-3.98-1.1-.85-.21-1.73-.39-2.66-.47-.57-.05-1.05-.43-1.31-.94h0c-.42-.84-1.1-1.6-1.97-2.08-.86-.5-1.89-.72-2.89-.64-1,.08-1.97.45-2.76,1-.8.54-1.45,1.25-1.95,1.99-.97,1.51-1.52,3.18-1.73,4.88-.19,1.7-.07,3.43.43,5.1.49,1.66,1.34,3.27,2.61,4.6.33.32.67.63,1.03.92l.58.4c.19.13.38.26.6.36l.63.31c.1.05.2.1.3.14-1.74.71-3.42,1.55-5.04,2.47-.86.49-1.63.93-2.35,1.22-.18.07-.35.13-.53.19-.17.05-.35.1-.46.13-.12.03-.19.04-.22.07-.03.02-.07.05-.13.04-.13-.01-.35-.18-.51-.44-.09-.13-.15-.29-.21-.45-.03-.09-.07-.24-.08-.33,0-.06-.01-.13-.02-.2-.03-.41.03-.88.13-1.37.11-.49.25-1.02.37-1.56-.47.29-.92.61-1.33,1-.41.39-.79.86-1.07,1.45-.07.15-.13.3-.18.46-.05.17-.1.34-.13.52-.06.35-.07.72-.04,1.08.03.37.13.74.28,1.11.16.37.38.74.7,1.07.32.33.73.61,1.19.8.46.18.9.24,1.29.26.4.02.73,0,1.06-.04.33-.04.65-.1.96-.18.77-.19,1.46-.48,2.1-.78-.06.44-.14.89-.25,1.33-.1.35-.17.71-.28,1.06-.12.35-.23.7-.36,1.04-.14.34-.26.69-.41,1.03l-.47,1.01c-.66,1.34-1.47,2.61-2.39,3.79-.88,1.11-1.85,2.14-2.94,3.02-.72-.14-1.46-.23-2.21-.27-.3-.01-.6-.03-.9-.03l-.9.06-.45.03c-.15,0-.3.02-.45.06l-.89.16c-.3.05-.61.11-.88.19-.27.07-.52.13-.74.18-.26.06-.59.09-.87.09,0,0-.14,0-.24,0,0,0-.01,0-.02,0,0,0-.02,0-.02,0-.1,0-.24,0-.24,0-.28,0-.61-.04-.87-.09-.22-.05-.47-.11-.74-.18-.27-.07-.58-.13-.88-.19l-.89-.16c-.15-.03-.3-.05-.45-.06l-.45-.03-.9-.06c-.3,0-.6.02-.9.03-.75.03-1.48.13-2.21.27-1.09-.88-2.07-1.91-2.94-3.02-.92-1.18-1.74-2.45-2.39-3.79l-.47-1.01c-.15-.34-.27-.69-.41-1.03-.13-.35-.24-.7-.36-1.04-.11-.35-.19-.71-.28-1.06-.1-.44-.19-.89-.25-1.33.63.31,1.33.59,2.1.78.31.08.63.14.96.18.33.04.66.06,1.06.04.39-.02.84-.09,1.29-.26.46-.18.87-.47,1.19-.8.32-.33.55-.7.7-1.07.16-.37.25-.74.28-1.11.03-.37.03-.73-.04-1.08-.03-.18-.08-.35-.13-.52-.06-.16-.11-.31-.18-.46-.28-.58-.66-1.06-1.07-1.45-.41-.39-.86-.71-1.33-1,.12.54.26,1.07.37,1.56.1.49.16.96.13,1.37,0,.07-.01.13-.02.2-.01.09-.05.24-.08.33-.06.16-.12.32-.21.45-.16.27-.38.43-.51.44-.07.01-.1-.01-.13-.04-.03-.02-.1-.04-.22-.07-.11-.03-.29-.08-.46-.13-.17-.06-.35-.12-.53-.19-.71-.29-1.48-.73-2.35-1.22-1.61-.92-3.29-1.75-5.04-2.47.1-.04.2-.09.3-.14l.63-.31c.21-.1.4-.23.6-.36l.58-.4c.36-.29.7-.6,1.03-.92,1.27-1.33,2.12-2.94,2.61-4.6.49-1.66.62-3.4.43-5.1-.2-1.7-.76-3.38-1.73-4.88-.5-.75-1.15-1.45-1.95-1.99-.79-.55-1.76-.92-2.76-1-1-.08-2.03.14-2.89.64-.87.49-1.55,1.24-1.97,2.07h0c-.26.52-.74.89-1.31.95-.93.09-1.81.27-2.66.47-1.38.33-2.69.75-3.98,1.1-.64.17-1.29.35-1.9.47-.62.11-1.25.19-1.88.22-1.26.07-2.54-.04-3.76-.28-2.44-.5-4.74-1.64-6.06-3.28-.33-.41-.6-.84-.81-1.29l-.15-.35c-.05-.13-.1-.26-.15-.4-.09-.27-.18-.54-.26-.81-.3-1.1-.47-2.24-.44-3.35.02-1.11.23-2.18.68-3.11.43-.95,1.09-1.7,1.96-2.3,1.74-1.19,4.23-1.54,6.27-.74.51.2.99.47,1.42.8.42.33.79.74,1.09,1.21.61.93.94,2.09.81,3.22-.06.57-.23,1.11-.54,1.61-.31.5-.74.93-1.25,1.29-1.01.7-2.37,1.05-3.69.63.57.37,1.28.57,1.99.6.72.02,1.45-.13,2.13-.42.68-.29,1.31-.73,1.83-1.3.52-.57.92-1.29,1.14-2.05.44-1.53.24-3.19-.43-4.64-.33-.73-.8-1.4-1.37-1.99-.58-.58-1.22-1.07-1.94-1.45-1.43-.77-3.05-1.11-4.65-1.06-1.6.04-3.2.48-4.65,1.29-.72.41-1.39.92-1.99,1.53-.6.62-1.1,1.3-1.5,2.04-.8,1.48-1.19,3.11-1.28,4.7-.03.56-.02,1.12.02,1.67.05.66-.77,1.01-1.23.53v-.02c-.9-.95-1.69-1.99-2.35-3.1l-.04-.07c-.94-1.57-1-3.49-.27-5.17.16-.36.29-.74.39-1.13.21-.86.29-1.79.18-2.72-.09-.91-.37-1.8-.77-2.63-.39-.83-.9-1.6-1.52-2.26-.61-.67-1.3-1.27-2.07-1.75-.77-.48-1.6-.89-2.48-1.16-.88-.28-1.83-.43-2.76-.46-.93-.03-1.85.08-2.75.29-.89.2-1.76.5-2.57.91-.03.02-.07.04-.11.06-2.08,1.14-4.67.45-5.84-1.61-.46-.81-.92-1.55-1.26-2.02-1.09-1.47-2.38-2.86-3.88-4.01-.74-.58-1.55-1.11-2.38-1.55-.83-.45-1.66-.83-2.49-1.17-1.65-.69-3.26-1.24-4.72-1.89-1.46-.65-2.77-1.39-3.8-2.34-1.03-.95-1.83-2.16-2.44-3.55-.61-1.39-1.05-2.95-1.46-4.57-.41-1.62-.78-3.32-1.29-5.04-.25-.86-.54-1.73-.89-2.59-.35-.86-.77-1.73-1.24-2.53-1.92-3.24-4.47-5.67-6.36-8.27-1.9-2.6-3.41-5.54-4.57-8.61-.58-1.54-1.07-3.11-1.45-4.7-.06-.24-.11-.48-.17-.73.33.26.67.51,1.01.75ZM213.97,192.21c4.77-4.37,8.49-9.75,12.45-14.87,4.38-5.65,9.23-11.16,15.73-14.3,1.25-.6,2.67-.79,4-.42,3.13.88,3.31,3.99,3.29,6.53-.03,4.32-.52,8.62-1.52,12.82-.7,2.95-1.64,5.92-3.46,8.35-1.61,2.16-4.01,3.85-6.66,4.17-.22-.77,4.05-3.37,5.51-5.36.84-1.14,1.32-2.54,1.16-3.96-.43-3.69-4.82-4.94-8.09-3.92-5.52,1.72-8.42,7.54-11.56,12.39-3.79,5.86-8.82,11.04-15.01,14.27-4.92,2.57-10.43,3.85-15.96,4.33-.33.03-.67.06-1,.08-2.08.14-4.18.12-6.21-.33-4.84-1.07-8.78-4.45-12.51-7.72l2.67-1.46c1.13,3.38,5.59,4.8,8.88,3.44,3.29-1.36,5.37-4.76,6.13-8.24,1.18-5.43-1.07-11.99-6.28-13.93-2.75-1.02-6.01-.69-8.42-2.36-.98-.68-2-2.52-.75-3.38.53-.36,1.18-.57,1.73-.94.69-.47,1.4-.88,2.16-1.21,3.02-1.33,6.45-1.56,9.7-1.31,4.71.36,9.37,1.6,14.09,1.43,9.34-.32,18.05-6.45,22.22-14.81,1.29-2.59,2.34-5.56,4.79-7.1,2.35-1.48,5.43-1.38,6.97-4.02.12-.2.23-.42.42-.57.84-.66,3.53-.41,4.58-.49l5.36-.42c.77-.06,1.61-.11,2.05.96.17.4.21.84.16,1.27-.27,2.11-.98,4.15-2.07,5.97-.63,1.05-1.3,1.33-2.5,1.3-3.45-.09-6.93,1.35-9.7,3.32-7.88,5.58-12.72,14.07-18.25,21.76-5.4,7.51-12.33,14.82-21.42,16.53,6.47-.07,12.53-3.43,17.31-7.8ZM235.81,205.54c.74,3.85,1.96,7.6,3.41,11.18.89,2.23,1.86,4.41,2.78,6.55-1.45-.53-2.89-1.1-4.3-1.72-1.35-.59-2.69-1.22-4.01-1.9-1.32-.67-2.61-1.4-3.89-2.15-2.55-1.52-5.01-3.21-7.34-5.08-1.86-1.49-3.64-3.11-5.34-4.83,2.27-1.59,4.38-3.41,6.28-5.43,1.29-1.39,2.49-2.86,3.57-4.42.26-.39.54-.78.79-1.18l.74-1.21c.47-.82.93-1.67,1.33-2.48.83-1.63,1.58-3.21,2.47-4.63.89-1.41,1.92-2.66,3.21-3.54.32-.22.66-.42,1.01-.6-.82,3.18-1.33,6.46-1.51,9.79-.19,3.87.06,7.81.81,11.66ZM193.39,245.55c.13-.64.23-1.29.33-1.93.16-.09.32-.18.48-.28.71-.43,1.4-.9,2.05-1.4.52-.4,1.03-.82,1.52-1.26.26.9.48,1.81.65,2.72.33,1.72.48,3.45.42,5.16,0,.21-.02.43-.04.66-.01.23-.03.46-.05.68-.02.23-.04.45-.06.67-.02.22-.04.45-.07.67-.02.22-.05.44-.09.66-.03.22-.06.44-.1.66-.03.22-.08.43-.13.65-.04.22-.09.43-.15.64-.22.85-.52,1.68-.93,2.5-.26.51-.57,1.02-.93,1.51-2.24-.14-4.5-.82-6.56-2.02,1.7-3.24,2.96-6.7,3.66-10.28ZM191.2,223.39c-.45-.97-.83-1.97-1.36-2.9l-.75-1.41c-.27-.46-.56-.91-.84-1.36-.54-.92-1.19-1.77-1.82-2.63-.3-.44-.65-.84-1-1.25l-1.03-1.22-.34-.35c2.82.94,5.8,1.45,8.78,1.69.15,0,.29.01.44.02.99,1.42,1.97,2.81,2.86,4.22.37.59.7,1.93.7,1.93.45,1.15-.07,2.69-1.17,3.5-1.11.81-2.76.98-4.21.41-.08-.22-.17-.44-.27-.66ZM191.91,258.06c1.27.78,2.68,1.37,4.17,1.73,1.49.34,3.05.46,4.62.32.18-.02.36-.04.53-.07-1.67,1.65-3.23,3.17-4.94,4.13-.46.27-.87.47-1.34.63-.46.17-.95.29-1.45.39-1.01.18-2.08.2-3.17.09-1.09-.12-2.22-.39-3.35-.78-.84-.28-1.69-.63-2.56-1.02,1.61-1.81,3.06-3.76,4.29-5.84.29-.49.56-.98.83-1.47.7.71,1.49,1.35,2.35,1.89ZM197.69,216.92c-1.12-1.06-2.3-2.04-3.56-2.91,3.27.13,6.57-.07,9.82-.72.84-.17,1.67-.37,2.5-.59.31,1.65.52,3.28.58,4.89.08,1.89,0,3.76-.27,5.59-.25,1.83-.67,3.62-1.23,5.34-.07.23-.16.45-.24.67-.18-.49-.36-.98-.55-1.47-.8-1.99-1.74-3.97-2.93-5.8-1.18-1.83-2.58-3.52-4.13-5ZM156.65,251.2s-.01,0-.02,0c0,0-.01,0-.02,0-6.77-.38-13.17,1.13-19.52,4.62-1.2-1.27-2.28-2.65-3.23-4.13,2.02-.58,3.92-1.45,5.77-2.31,1.6-.74,3.12-1.44,4.7-1.96,3.9-1.27,8.14-1.39,12.27-1.46h.02s.02,0,.02,0c4.13.07,8.37.19,12.27,1.46,1.58.52,3.1,1.22,4.7,1.96,1.85.86,3.75,1.73,5.77,2.31-.94,1.48-2.02,2.86-3.23,4.13-6.35-3.49-12.75-5-19.52-4.62ZM173.02,258.66c-2.31,1.8-4.9,3.24-7.66,4.22-1.51.53-3.06.92-4.63,1.18-1.35.23-2.71.35-4.08.37,0,0-.01,0-.02,0,0,0-.01,0-.02,0-1.37-.03-2.73-.15-4.08-.37-1.57-.26-3.12-.65-4.63-1.18-2.75-.97-5.34-2.41-7.66-4.22,5.33-2.7,10.55-3.81,16.23-3.48h.32c5.68-.33,10.9.78,16.23,3.48ZM155.11,221.07c-.08.72-.17,1.44-.28,2.15-.15.96-.33,1.96-.85,2.61-.77.98-2.39,1.3-3.86,1.53-1.53.24-3.01.44-4.43.31-.96-.09-1.83-.35-2.54-.74.36-.54.65-1.15.88-1.8.52-1.55.6-3.16.68-4.59.06-1.12.12-2.84.17-4.51.06-1.63.11-3.31.17-4.41l1.07-.53c.19-.1.38-.18.58-.25l.24-.1c.12.08.25.16.38.24.32.2.64.37.96.52.33.14.65.27.98.37,1.31.42,2.63.57,3.93.52.57-.03,1.14-.09,1.7-.2-.17,2.96-.1,5.93.21,8.88ZM155.11,242.98s0,.03,0,.04c-2.62.06-5.27.19-7.9.65l-.22-.76c-.13-.46-.3-1.06-.58-1.66,1.92-.95,4.12-1.31,6.09-1.52.58-.06,1.23-.11,1.56.08.2.12.48.45.72,1.36.19.71.29,1.26.33,1.8ZM144.13,243.73l.17.6c-.3.09-.59.17-.89.27-1.43.47-2.81,1.07-4.14,1.68-.33-.72-.73-1.41-1.2-2.06-.07-.09-.14-.18-.21-.28.95-.78,2-1.43,3.12-1.92.98-.42,1.75-.52,2.16-.27.47.28.75,1.13.99,1.97ZM141.9,215.93c-.06,1.65-.11,3.36-.17,4.46-.07,1.3-.14,2.63-.53,3.79-.37,1.11-1.04,1.95-1.83,2.31-.66.3-1.54.33-2.48.07-.74-.2-3.08-1.31-4.53-2.05.3-.61.61-1.21.95-1.8,1.66-2.87,3.86-5.44,6.43-7.59.32-.26.64-.54.97-.8l1.03-.73c.08-.06.16-.11.24-.17-.03.79-.06,1.66-.09,2.51ZM134.88,245.19c.3.16.58.52.77.78.35.48.65,1,.9,1.54-1.4.62-2.78,1.16-4.2,1.5-.46-.93-.87-1.89-1.22-2.87.22-.2.54-.45,1-.75.68-.45,2.09-.55,2.75-.2ZM158.14,242.98c.04-.54.14-1.09.33-1.8.24-.92.52-1.25.72-1.36.33-.2.98-.15,1.56-.08,1.97.21,4.18.57,6.09,1.52-.28.6-.45,1.2-.58,1.66l-.22.76c-2.63-.46-5.28-.59-7.9-.65,0-.01,0-.03,0-.04ZM176.7,247.52c.25-.54.54-1.06.9-1.54.19-.26.48-.63.77-.78.66-.35,2.08-.24,2.75.2.46.3.78.56,1,.75-.35.98-.76,1.94-1.22,2.87-1.42-.34-2.8-.88-4.2-1.5ZM176.35,226.56c-.94.25-1.82.23-2.48-.07-.79-.36-1.45-1.2-1.83-2.31-.39-1.16-.46-2.5-.53-3.79-.06-1.09-.11-2.8-.17-4.46-.03-.85-.06-1.71-.09-2.51.08.06.16.11.24.17l1.03.73c.33.26.65.53.97.8,2.57,2.14,4.77,4.71,6.43,7.59.34.59.65,1.19.95,1.8-1.45.75-3.79,1.85-4.53,2.05ZM172.27,242.03c1.12.48,2.18,1.13,3.12,1.92-.07.1-.15.19-.21.28-.47.65-.86,1.34-1.2,2.06-1.34-.61-2.71-1.21-4.14-1.68-.3-.1-.59-.19-.89-.27l.17-.6c.24-.84.51-1.68.99-1.97.41-.25,1.18-.15,2.16.27ZM167.56,227.67c-1.42.13-2.91-.07-4.43-.31-1.46-.23-3.08-.55-3.86-1.53-.51-.65-.7-1.65-.85-2.61-.11-.71-.2-1.43-.28-2.15.31-2.95.38-5.92.21-8.88.56.11,1.13.18,1.7.2,1.29.05,2.62-.1,3.93-.52.33-.1.65-.24.98-.37.32-.15.65-.32.97-.52.13-.08.25-.16.38-.24l.24.1c.2.08.39.15.58.25l1.07.53c.06,1.1.11,2.78.17,4.41.06,1.67.11,3.39.17,4.51.07,1.43.16,3.04.68,4.59.22.66.52,1.26.87,1.8-.71.39-1.58.65-2.54.74ZM165.05,207.02c-.39.4-.81.78-1.18,1.13-.33.3-.73.6-1.16.88-.87.56-1.88,1.03-2.95,1.44-.53.21-1.09.4-1.66.58-.47.14-.96.28-1.46.42,0,0-.01,0-.02,0,0,0-.01,0-.02,0-.5-.13-.99-.27-1.46-.42-.57-.18-1.12-.37-1.66-.58-1.07-.42-2.08-.89-2.95-1.44-.44-.27-.83-.57-1.16-.88-.37-.35-.79-.73-1.18-1.13-.8-.79-1.61-1.64-2.52-2.48-.91-.83-1.93-1.68-3.08-2.36-1.14-.67-2.36-1.21-3.62-1.56-2.51-.69-5.2-.74-7.59.14,1.2.41,2.32.8,3.39,1.25.42.18.82.36,1.22.55-.44.48-.91.91-1.41,1.26-.85.59-1.78.98-2.68,1.03-1.82.16-3.37-.92-4.54-2.39-1.15-1.46-1.88-3.29-2.24-5.19-.08-.48-.16-.95-.2-1.44-.03-.24-.03-.48-.05-.72v-.69c.03-.91.18-1.79.47-2.59.28-.81.73-1.53,1.29-2.19.56-.66,1.27-1.23,2.06-1.74.79-.5,1.67-.91,2.6-1.26.93-.33,1.91-.6,2.92-.8,1.01-.21,2.04-.33,3.08-.41,1.04-.07,2.1-.1,3.17-.04,2.12.11,4.27.42,6.38,1.17-.84-.75-1.81-1.37-2.84-1.87-1.03-.51-2.12-.9-3.23-1.22-1.11-.31-2.26-.52-3.42-.64-.5-.05-1.01-.09-1.51-.11.95-1.25,2.03-2.37,3.23-3.35,1.62-1.32,3.44-2.36,5.34-3.03,1.9-.67,3.91-.9,5.8-.69l.71.08.69.16.34.08c.11.02.23.05.34.1l.66.23c.22.08.43.15.67.25.24.1.5.21.78.32.57.22,1.28.45,2.13.49h.19c.85-.04,1.56-.27,2.13-.49.29-.11.55-.22.78-.32.24-.11.45-.18.67-.25l.66-.23c.11-.04.22-.08.34-.1l.34-.08.69-.16.71-.08c1.89-.21,3.9.02,5.8.69,1.91.66,3.72,1.71,5.34,3.03,1.19.97,2.28,2.1,3.23,3.35-.51.02-1.01.05-1.51.11-1.16.12-2.31.33-3.42.64-1.11.31-2.2.71-3.23,1.22-1.03.5-2,1.12-2.84,1.87,2.12-.75,4.26-1.07,6.38-1.17,1.06-.06,2.12-.03,3.17.04,1.04.08,2.08.2,3.08.41,1.01.2,1.98.47,2.92.8.93.34,1.81.76,2.6,1.26.79.5,1.5,1.07,2.06,1.74.57.66,1.01,1.38,1.29,2.19.29.8.43,1.68.46,2.59v.69c0,.24,0,.48-.04.72-.04.48-.12.96-.2,1.44-.35,1.9-1.08,3.74-2.24,5.19-1.17,1.47-2.72,2.55-4.54,2.39-.91-.05-1.84-.44-2.68-1.03-.5-.35-.97-.78-1.41-1.26.4-.19.8-.38,1.22-.55,1.07-.45,2.19-.84,3.39-1.25-2.38-.88-5.07-.83-7.59-.14-1.26.35-2.48.88-3.62,1.56-1.16.68-2.17,1.52-3.08,2.36-.91.84-1.73,1.69-2.52,2.48ZM112.55,260.11c1.57.15,3.13.03,4.62-.32,1.49-.36,2.9-.95,4.17-1.73.86-.54,1.65-1.18,2.35-1.89.27.5.54.99.83,1.47,1.23,2.08,2.68,4.03,4.29,5.84-.87.38-1.71.74-2.56,1.02-1.14.39-2.26.66-3.35.78-1.09.11-2.16.1-3.17-.09-.5-.09-.99-.22-1.45-.39-.47-.17-.88-.36-1.34-.63-1.71-.96-3.27-2.48-4.94-4.13.18.02.35.05.53.07ZM111.44,221.92c-1.19,1.83-2.13,3.81-2.93,5.8-.19.49-.38.98-.55,1.47-.09-.22-.17-.44-.24-.67-.56-1.71-.98-3.5-1.23-5.34-.27-1.83-.35-3.7-.27-5.59.06-1.61.27-3.23.58-4.89.83.23,1.67.42,2.5.59,3.26.64,6.56.85,9.82.72-1.25.87-2.44,1.85-3.56,2.91-1.55,1.48-2.94,3.17-4.13,5ZM116.96,257.86c-.35-.5-.67-1-.93-1.51-.41-.81-.71-1.65-.93-2.5-.05-.21-.11-.42-.15-.64-.05-.21-.1-.43-.13-.65-.04-.22-.07-.43-.1-.66-.04-.22-.07-.44-.09-.66-.03-.22-.05-.44-.07-.67-.03-.22-.05-.45-.06-.67-.02-.22-.04-.45-.05-.68-.02-.23-.03-.45-.04-.66-.07-1.72.09-3.44.42-5.16.17-.91.39-1.81.65-2.72.49.44,1,.87,1.52,1.26.65.51,1.34.97,2.05,1.4.16.1.32.19.48.28.09.65.2,1.29.33,1.93.7,3.58,1.96,7.04,3.66,10.28-2.06,1.21-4.32,1.88-6.56,2.02ZM121.78,224.04c-1.45.56-3.1.4-4.21-.41-1.1-.81-1.61-2.35-1.17-3.5,0,0,.32-1.34.7-1.93.89-1.42,1.87-2.81,2.86-4.22.15,0,.29-.01.44-.02,2.99-.24,5.97-.75,8.78-1.69l-.34.35-1.03,1.22c-.34.41-.69.81-1,1.25-.63.86-1.28,1.71-1.82,2.63-.28.45-.57.9-.84,1.36l-.75,1.41c-.53.93-.92,1.93-1.36,2.9-.1.21-.19.43-.27.66ZM126.6,211.99c-2.03.45-4.13.47-6.21.33-.33-.02-.67-.05-1-.08-5.53-.48-11.04-1.76-15.96-4.33-6.19-3.23-11.21-8.41-15.01-14.27-3.14-4.85-6.04-10.67-11.56-12.39-3.26-1.02-7.66.24-8.09,3.92-.16,1.41.32,2.81,1.16,3.96,1.46,1.99,5.73,4.59,5.51,5.36-2.65-.32-5.05-2.01-6.66-4.17-1.82-2.43-2.76-5.41-3.46-8.35-1-4.2-1.49-8.5-1.52-12.82-.02-2.54.16-5.65,3.29-6.53,1.33-.37,2.75-.18,4,.42,6.5,3.14,11.35,8.65,15.73,14.3,3.96,5.12,7.68,10.49,12.45,14.87,4.77,4.37,10.83,7.73,17.31,7.8-9.09-1.71-16.02-9.02-21.42-16.53-5.53-7.7-10.36-16.18-18.25-21.76-2.77-1.96-6.25-3.41-9.7-3.32-1.2.03-1.87-.25-2.5-1.3-1.09-1.82-1.81-3.87-2.07-5.97-.05-.43,0-.87.16-1.27.44-1.07,1.28-1.02,2.05-.96l5.36.42c1.04.08,3.74-.18,4.58.49.18.15.3.36.42.57,1.55,2.64,4.62,2.54,6.97,4.02,2.45,1.55,3.5,4.51,4.79,7.1,4.17,8.36,12.88,14.49,22.23,14.81,4.72.16,9.38-1.08,14.09-1.43,3.25-.25,6.68-.02,9.7,1.31.76.33,1.47.75,2.15,1.21.55.37,1.2.58,1.73.94,1.25.85.24,2.69-.75,3.38-2.41,1.67-5.67,1.34-8.42,2.36-5.21,1.94-7.45,8.5-6.28,13.93.75,3.48,2.83,6.89,6.13,8.24,3.29,1.36,7.75-.06,8.88-3.44l2.67,1.46c-3.73,3.27-7.67,6.65-12.51,7.72ZM78.26,193.88c-.19-3.32-.69-6.6-1.51-9.79.35.18.69.38,1.01.6,1.29.88,2.32,2.13,3.21,3.54.89,1.42,1.64,3,2.47,4.63.4.81.86,1.66,1.33,2.48l.74,1.21c.25.4.53.79.79,1.18.1.14.2.28.3.41-1.64,5.31-3.98,10.46-6.97,15.28,3.39-3.91,6.34-8.27,8.77-12.95.48.57.97,1.13,1.47,1.68,1.9,2.02,4.01,3.84,6.28,5.43-1.71,1.72-3.48,3.34-5.34,4.83-2.34,1.88-4.8,3.56-7.34,5.08-1.28.75-2.57,1.48-3.89,2.15-1.31.68-2.65,1.31-4.01,1.9-1.42.62-2.85,1.19-4.3,1.72.92-2.15,1.89-4.32,2.78-6.55,1.45-3.58,2.67-7.33,3.41-11.18.76-3.85,1.01-7.78.81-11.66ZM78.93,130.44c-.27-.09-.54-.18-.82-.22-.94-.23-1.92-.24-2.84-.11l-.68.14c-.22.07-.44.15-.65.22l-.32.11-.3.16-.59.32c1.74-.38,3.47-.16,4.88.6.36.16.68.42,1.01.62l.46.37c.07.06.15.12.22.19l.21.21c.12.11.24.24.35.36.34.9.74,1.78,1.19,2.62.23.43.47.84.72,1.26l.02.13.04.26v.26c.01.17.03.34.03.51l-.04.49c-.09.64-.26,1.22-.54,1.73-.29.51-.69.95-1.16,1.34-.94.78-2.22,1.29-3.54,1.52l-.5.07-.5.04c-.15.01-.38.02-.57.03-.2.01-.4.01-.59.02-.79.02-1.56,0-2.31-.08-1.49-.14-2.89-.44-4.08-.99-.15-.07-.29-.14-.44-.21l-.42-.23c-.14-.08-.27-.17-.41-.25-.13-.08-.28-.2-.42-.3l-.42-.31c-.14-.1-.29-.2-.4-.32l-.74-.67c-.92-.93-1.7-1.87-2.37-2.97-.18-.27-.31-.57-.48-.86-.17-.29-.28-.62-.43-.94-.13-.32-.22-.67-.34-1.02-.11-.35-.16-.72-.25-1.08-.25-1.48-.18-3.1.24-4.66.09-.39.23-.77.36-1.15.07-.19.13-.38.21-.57l.24-.56.24-.56c.08-.19.18-.37.27-.55.19-.36.37-.73.59-1.08,1.63-2.85,3.93-5.36,6.6-7.23.66-.48,1.37-.87,2.08-1.25.36-.17.71-.36,1.08-.52.37-.14.74-.29,1.11-.42.01,0,.03,0,.04-.01,2.12-.72,4.46.2,5.59,2.14.31.54.62,1.08.92,1.63-.04.08-.09.15-.14.23-.44.78-.79,1.59-1.07,2.43-.98,3-1.03,6.16-.35,9.11ZM96.71,126.73c-.32.4-.7.77-1.13,1.08-.57.41-1.22.74-1.95.96.32.04.64.06.97.04,1.51-.09,2.95.63,3.69,1.95l.1.18c.74,1.31,1.62,2.52,2.6,3.63.99,1.11,2.08,2.13,3.29,3.03,1.03.77,2.15,1.45,3.37,1.98,1.14,1.04,2.46,1.77,3.79,2.25,1.44.52,2.9.8,4.36.92,1.45.13,2.9.08,4.33-.09.71-.09,1.43-.21,2.13-.38.7-.17,1.37-.35,2.02-.55,1.31-.38,2.59-.74,3.86-.97.62-.11,1.24-.18,1.84-.19.65-.01,1.22.42,1.38,1.05,0,0,0,0,0,0,.06.2.13.41.21.6.34.77.81,1.47,1.48,1.97.33.25.71.45,1.11.53.4.08.82.03,1.16-.14-.77.07-1.38-.36-1.77-.9-.39-.54-.64-1.19-.74-1.84-.18-1.3.04-2.7.73-3.57.33-.45.76-.76,1.22-.94.46-.18.96-.21,1.43-.12.94.2,1.78.91,2.36,1.92.57,1.03.94,2.25,1.02,3.51.08,1.25-.1,2.53-.48,3.7-.39,1.17-1.01,2.23-1.82,3.02-.81.78-1.83,1.29-2.9,1.49l-.39.07h-.39c-.26.03-.51-.04-.77-.05-.13,0-.26-.06-.39-.09-.13-.04-.26-.05-.4-.11-.27-.11-.54-.18-.81-.33-1.1-.51-2.23-1.31-3.44-2.18-1.22-.85-2.53-1.8-4.12-2.51-1.51-.67-3.09-1.14-4.67-1.45-3.18-.6-6.34-.58-9.39-.36-1.54.11-2.99.27-4.44.37-1.44.1-2.86.16-4.26.13-2.78-.09-5.44-.58-7.72-1.81-.57-.3-1.11-.65-1.65-1.02-.54-.39-1.07-.81-1.57-1.25-1.01-.89-1.92-1.88-2.74-2.94-1.64-2.13-2.81-4.58-3.49-7.12-.65-2.47-.67-5.11.1-7.41.19-.57.41-1.13.69-1.65.28-.52.59-1,.97-1.46.75-.9,1.67-1.68,2.7-2.23,1.02-.55,2.14-.88,3.25-.91.54-.02,1.08.02,1.63.15.54.14,1.09.32,1.6.58,1.02.52,1.96,1.28,2.6,2.23.31.47.6.98.76,1.53.16.54.25,1.11.23,1.71-.05,1.2-.46,2.49-1.24,3.58-.09.12-.18.24-.28.36h-.02s0,.02,0,.03ZM130.16,162.53c-.13,1.81-.48,3.6-1.03,5.4-.45,1.48-1.06,2.95-1.78,4.53-2.41-.64-4.96-.84-7.48-.62-.43.05-.86.08-1.29.15l-1.28.22c-.37.06-.74.15-1.11.2-.37.05-.74.12-1.12.15-1.5.16-3,.21-4.5.12-1.5-.09-2.98-.29-4.44-.63-.82-.18-1.62-.41-2.41-.68-.22-.42-.43-.84-.61-1.26-.55-1.25-.97-2.51-1.26-3.77-.58-2.53-.6-5.09-.15-7.55.22-1.23.57-2.44,1.07-3.6.48-1.17,1.09-2.29,1.81-3.37.92-1.38,2.04-2.64,3.35-3.82.66-.06,1.32-.12,1.96-.17,2.87-.22,5.69-.23,8.36.29,1.33.26,2.61.65,3.81,1.18,1.12.5,2.25,1.29,3.45,2.14,1.13.8,2.35,1.68,3.82,2.39.28,1.1.51,2.15.66,3.21.26,1.87.33,3.69.19,5.51ZM179.09,144.75c.4-.08.78-.28,1.11-.53.66-.5,1.14-1.2,1.48-1.97.09-.19.16-.4.21-.6,0,0,0,0,0,0,.16-.63.73-1.06,1.38-1.05.6.01,1.22.08,1.84.19,1.27.22,2.55.59,3.86.97.66.19,1.32.38,2.02.55.7.17,1.42.29,2.13.38,1.43.17,2.88.22,4.33.09,1.45-.12,2.92-.4,4.36-.92,1.33-.49,2.65-1.21,3.79-2.25,1.22-.53,2.34-1.22,3.37-1.98,1.21-.9,2.3-1.92,3.29-3.03.98-1.12,1.86-2.32,2.6-3.63l.1-.18c.74-1.32,2.18-2.04,3.69-1.95.33.02.65,0,.97-.04-.73-.21-1.38-.55-1.95-.96-.43-.31-.8-.68-1.13-1.08,0,0,0-.01,0-.02h-.02c-.1-.13-.19-.25-.28-.37-.78-1.09-1.19-2.37-1.24-3.58-.02-.61.08-1.18.23-1.71.16-.55.44-1.06.76-1.53.64-.95,1.58-1.7,2.6-2.23.52-.26,1.06-.44,1.6-.58.55-.13,1.09-.17,1.63-.15,1.11.03,2.22.37,3.25.91,1.02.55,1.95,1.33,2.7,2.23.38.45.69.94.97,1.46.28.52.51,1.08.69,1.65.76,2.3.75,4.93.1,7.41-.68,2.54-1.86,4.99-3.49,7.12-.82,1.06-1.73,2.05-2.74,2.94-.5.45-1.03.86-1.57,1.25-.54.37-1.08.72-1.65,1.02-2.28,1.22-4.94,1.72-7.72,1.81-1.39.04-2.81-.02-4.26-.13-1.44-.1-2.89-.26-4.44-.37-3.04-.22-6.21-.24-9.39.36-1.58.31-3.16.78-4.67,1.45-1.59.71-2.91,1.66-4.12,2.51-1.21.87-2.34,1.67-3.44,2.18-.28.15-.54.22-.81.33-.14.06-.26.07-.4.11-.13.03-.26.08-.39.09-.26.02-.52.09-.77.06h-.39s-.39-.07-.39-.07c-1.07-.2-2.09-.71-2.9-1.49-.81-.79-1.44-1.85-1.83-3.02-.39-1.17-.56-2.45-.48-3.7.08-1.25.45-2.47,1.02-3.51.58-1.01,1.42-1.72,2.36-1.92.47-.09.96-.06,1.43.12.46.18.9.49,1.22.94.69.87.91,2.27.73,3.57-.09.65-.35,1.29-.74,1.84-.38.54-1,.97-1.77.9.34.17.75.22,1.16.14ZM211.41,166.33c-.29,1.26-.71,2.52-1.26,3.77-.19.42-.4.84-.61,1.26-.79.27-1.59.5-2.41.68-1.45.34-2.94.54-4.44.63-1.5.09-3,.04-4.5-.12-.38-.03-.74-.1-1.12-.15-.37-.06-.74-.14-1.11-.2l-1.28-.22c-.43-.08-.86-.1-1.29-.15-2.53-.22-5.07-.01-7.48.62-.73-1.58-1.33-3.04-1.78-4.53-.55-1.81-.9-3.59-1.03-5.4-.14-1.81-.07-3.63.19-5.51.15-1.05.38-2.11.66-3.21,1.47-.71,2.69-1.6,3.82-2.39,1.2-.85,2.32-1.64,3.45-2.14,1.2-.53,2.48-.92,3.81-1.18,2.66-.52,5.49-.51,8.36-.29.64.05,1.29.11,1.96.17,1.3,1.19,2.42,2.45,3.35,3.82.72,1.08,1.33,2.21,1.81,3.37.5,1.16.85,2.37,1.07,3.6.46,2.46.43,5.03-.15,7.55ZM248.48,140.34l-.74.67c-.11.12-.26.21-.4.32l-.42.31c-.14.1-.28.22-.42.3-.14.08-.27.17-.41.25l-.42.23c-.15.07-.29.14-.44.21-1.19.54-2.59.85-4.08.99-.75.07-1.52.09-2.31.08-.2,0-.39,0-.59-.02-.19-.01-.42-.01-.57-.03l-.5-.04-.5-.07c-1.32-.23-2.61-.74-3.54-1.52-.47-.39-.87-.83-1.16-1.34-.28-.51-.46-1.09-.54-1.73l-.04-.49c0-.17.02-.34.02-.51v-.26s.05-.26.05-.26l.02-.13c.25-.41.49-.83.72-1.26.45-.85.84-1.72,1.19-2.62.11-.12.23-.25.35-.36l.21-.21c.07-.07.15-.12.22-.19l.46-.37c.33-.2.65-.46,1.01-.62,1.41-.77,3.14-.99,4.88-.6l-.59-.32-.3-.16-.32-.11c-.21-.07-.43-.15-.65-.22l-.68-.14c-.92-.13-1.9-.12-2.84.11-.28.05-.56.13-.83.22.67-2.95.63-6.11-.35-9.11-.27-.84-.63-1.65-1.07-2.43-.04-.08-.09-.15-.14-.23.3-.55.61-1.09.92-1.63,1.12-1.94,3.47-2.86,5.59-2.14.01,0,.03,0,.04.01.37.13.74.28,1.11.42.37.15.72.35,1.08.52.71.38,1.42.78,2.08,1.25,2.67,1.87,4.97,4.38,6.6,7.23.22.35.4.72.59,1.08.09.18.19.36.27.55l.24.56.24.56c.08.19.14.38.21.57.13.38.27.76.36,1.15.42,1.55.49,3.17.24,4.66-.08.37-.14.73-.25,1.08-.12.34-.21.69-.34,1.02-.15.32-.26.64-.43.94-.17.29-.3.59-.48.86-.68,1.1-1.45,2.04-2.37,2.97ZM26.14,94.11c.75-1.58,1.64-3.08,2.69-4.47,1.05-1.38,2.23-2.66,3.53-3.8,1.21-1.04,2.51-1.97,3.89-2.75,1.82-1.04,4.14-.22,4.9,1.74.63,1.63,1.35,3.46,1.83,4.61.43,1.02.83,2.04,1.21,3.06.26.71-.03,1.5-.68,1.87h-.01s-.65.37-.65.37c-.21.13-.41.28-.61.41-.2.14-.4.28-.6.42l-.56.48c-1.46,1.28-2.61,2.84-3.34,4.54-.73,1.7-1.07,3.52-1.01,5.27.05,1.76.5,3.46,1.26,4.94-.38-1.63-.37-3.3-.03-4.84.34-1.54,1.02-2.96,1.93-4.14.91-1.18,2.08-2.1,3.32-2.73l.47-.23h0c1.12-.35,2.28.4,2.44,1.56.17,1.28.31,2.59.5,3.92.18,1.33.41,2.69.77,4.05.18.68.39,1.35.64,2.03.16.35.3.74.49,1.07.19.32.36.67.56.97.79,1.24,1.69,2.3,2.63,3.31.94,1.01,1.93,1.96,2.97,2.86l.03.03c1.72,1.51,1.61,4.24-.29,5.51-.98.65-2.03,1.19-3.16,1.61-.79.32-1.61.54-2.43.75-.83.18-1.67.35-2.51.43-1.69.2-3.42.13-5.11-.13-1.7-.25-3.36-.74-4.94-1.43-1.58-.69-3.07-1.59-4.44-2.64-2.73-2.14-4.87-4.99-6.21-8.19-1.31-3.24-1.96-6.79-1.88-10.29.11-3.51.91-6.99,2.41-10.15ZM14.63,120.65l.14-.94.25-.92c.13-.62.4-1.2.62-1.78.1-.3.26-.57.41-.85l.44-.83c.17-.26.35-.52.53-.78l.26-.38.13-.19.15-.18.62-.7c.1-.12.2-.23.31-.35l.35-.31s0,0,.01-.01c1.09-.95,2.79-.45,3.22.93.24.78.52,1.55.83,2.31.74,1.83,1.74,3.56,2.91,5.16,1.17,1.6,2.58,3.02,4.1,4.29l.02.02c.9.73.6,2.18-.54,2.46-3.05.76-6,1.96-8.71,3.59-.23.13-.45.27-.67.41-.83.52-1.94.35-2.57-.41-.77-.93-1.4-1.99-1.89-3.12-.29-.56-.42-1.18-.62-1.77-.11-.3-.14-.61-.2-.92-.06-.31-.12-.62-.17-.93-.11-1.25-.16-2.53.06-3.78ZM46.43,222.37c-2.37-.84-4.56-2.18-6.39-3.92-.22-.22-.45-.44-.67-.67-.21-.24-.43-.46-.64-.7l-.62-.75c-.21-.25-.39-.52-.59-.77-.77-1.05-1.46-2.15-2.06-3.31-1.17-2.32-1.99-4.83-2.34-7.42-.38-2.58-.36-5.24.13-7.83.08-.48.18-.95.3-1.42,1.28-5.29,4.78-9.73,9.44-12.54.59-.36,1.17-.74,1.73-1.15,3.1-2.3,5.6-5.4,7.15-8.94.79-1.76,1.32-3.63,1.63-5.52.07-.48.13-.95.18-1.43l.07-1.48c.02-.25,0-.49-.01-.74l-.04-.74c-.02-.25-.02-.49-.05-.74l-.11-.73c-.57-3.91-2.56-7.53-5.37-10.2-.36-.32-.73-.64-1.09-.96-.39-.29-.79-.57-1.18-.85l-.3-.21-.31-.18-.63-.36c-.21-.12-.41-.24-.63-.35l-.66-.3c-1.75-.78-3.62-1.31-5.51-1.44-.24-.02-.47-.06-.71-.06h-.72c-.24,0-.48-.02-.72,0l-.72.07c-.24.03-.48.04-.71.09l-.7.14c-.23.05-.47.09-.7.16l-.68.21c-1.81.59-3.47,1.55-4.84,2.79-2.77,2.46-4.34,6.06-4.24,9.51.4-1.67,1.09-3.23,2.04-4.57.95-1.34,2.14-2.46,3.46-3.31,1.33-.85,2.79-1.42,4.29-1.69l.56-.1c.19-.04.38-.03.57-.05l.56-.04c.19-.01.38,0,.56,0h.56c.19.01.37.05.56.07l.55.07c.18.02.37.08.56.12.37.09.75.15,1.11.26l1.08.35c.7.29,1.4.57,2.04.96,1.3.73,2.5,1.64,3.49,2.74,1.98,2.18,3.32,4.93,3.63,7.81l.07.54c.02.18.01.36.02.54l.02.54c0,.18.02.36,0,.54l-.08,1.08c-.04.36-.1.74-.16,1.11-.27,1.47-.7,2.91-1.33,4.26-1.24,2.71-3.22,5.05-5.62,6.8-2.41,1.73-5.25,2.85-8.19,3.16-1.47.17-2.94.14-4.44-.07-1.51-.21-3-.56-4.44-1.07-2.87-1.02-5.53-2.63-7.74-4.73-2.21-2.1-4.02-4.63-5.24-7.42-1.22-2.79-1.87-5.84-1.85-8.9.01-.38.01-.77.03-1.15.03-.38.05-.76.09-1.15l.15-1.17c.05-.39.13-.77.19-1.16.28-1.54.68-3.06,1.21-4.54,1.08-2.95,2.61-5.75,4.59-8.2,1.96-2.47,4.32-4.64,7-6.35,5.22-3.42,11.58-5.06,17.91-4.69.88.17,1.78.27,2.68.35,1,.05,2,.09,3.01.03,1.01-.04,2-.17,3-.33.99-.19,1.98-.41,2.94-.71.02,0,.04-.01.06-.02,2.12-.62,4.16,1.2,3.71,3.36-.04.17-.07.34-.09.49-.06.51-.15,1.02-.18,1.54-.01.52-.06,1.06-.02,1.59.05.54.06,1.08.16,1.62.05.27.11.54.17.81.06.27.1.55.21.81.64,2.15,1.94,4.14,3.59,5.59,0,0-.36,4.62-.13,6.48.23,1.86.72,3.66,1.3,5.39.37,1.13.78,2.24,1.17,3.36-.03.03-.07.06-.1.09-1.07,1.09-1.81,2.38-2.28,3.74-.47,1.38-.63,2.73-.68,4.04-.04,1.3.05,2.54.15,3.72.1,1.17.2,2.32.33,3.49.25,2.34.57,4.72,1.1,7.1.11.48.3,1.1.54,1.79.98,2.82-1.03,5.74-4,5.92-.02,0-.05,0-.07,0-3.35.24-6.6,1.61-9,3.84-.15.14-.31.26-.45.41l-.43.46c-.14.16-.29.3-.42.46l-.38.5c-.12.17-.25.33-.36.5l-.32.53c-.1.18-.22.35-.31.54l-.26.56c-.68,1.49-1.04,3.11-1.05,4.7-.05,3.19,1.33,6.26,3.57,8.18-.79-1.24-1.33-2.58-1.59-3.94-.25-1.37-.24-2.74.01-4.04.26-1.3.76-2.52,1.47-3.58l.27-.39c.08-.13.2-.25.3-.37l.3-.36c.1-.12.22-.22.33-.33l.33-.33c.11-.11.24-.2.36-.3l.36-.29c.12-.1.26-.18.39-.27.27-.17.52-.36.8-.52l.83-.45c.58-.25,1.15-.52,1.75-.67,1.19-.36,2.42-.56,3.65-.53,2.45.06,4.85.83,6.75,2.27l.36.26c.12.09.22.2.34.3l.33.3c.11.1.23.19.32.31l.6.66c.19.23.37.49.56.74.4.48.69,1.03,1.02,1.55.04.07.08.13.12.2l.1.21.2.42.2.42.1.21c.03.07.05.15.08.22.2.58.44,1.15.56,1.76l.11.45c.04.15.08.3.1.45l.14.91c.06.3.05.61.07.92l.03.46c.01.15.02.31,0,.46l-.03.92c0,.31-.07.61-.1.91l-.06.46-.03.23-.05.22-.21.89-.05.22-.07.22-.15.43-.14.43-.07.22-.09.21-.37.83-.09.21-.11.2-.23.4-.23.4-.11.2c-.04.06-.09.12-.13.19l-.53.74c-.16.26-.38.47-.58.7-.2.22-.39.47-.6.68l-.67.63c-.11.1-.22.21-.33.31l-.37.3c-.99.79-2.05,1.48-3.17,2.05-2.24,1.14-4.71,1.84-7.23,1.98-2.51.15-5.06-.2-7.43-1.05ZM84.94,264.11l-1.45.53-.36.13-.37.1-.74.21c-.98.31-2,.47-3.01.68-.51.08-1.02.13-1.53.19l-.77.09-.77.03c-.52.02-1.03.05-1.55.06l-1.55-.06c-1.04-.01-2.03-.17-3.04-.33-4-.72-7.8-2.56-10.86-5.24-3.08-2.68-5.4-6.2-6.67-10.07-.3-.97-.58-1.95-.75-2.96-.11-.5-.15-1.01-.23-1.51l-.07-.76c-.03-.25-.04-.51-.05-.76l-.03-.76v-.76c0-.51.06-1.02.09-1.52.06-.5.14-.99.2-1.48.02-.12.03-.25.05-.37l.09-.36.18-.72c.51-1.92,1.32-3.74,2.42-5.38,1.1-1.64,2.47-3.09,4.06-4.26,1.66-1.22,4.41-2.5,6.42-2.97.47-.11.95-.2,1.43-.27-.03.08-.06.15-.08.23l-1.35,3.75,3.79-1.21c2.12-.68,4.21-1.47,6.24-2.38,1.18.52,2.29,1.18,3.3,1.98,1.15.92,2.18,2.01,3.01,3.24,1.67,2.45,2.57,5.42,2.5,8.43-.04,1.48-.32,2.93-.9,4.29-.57,1.37-1.44,2.62-2.5,3.7-1.06,1.09-2.33,2.01-3.77,2.71l-1.11.48c-.38.13-.77.26-1.16.4-.4.1-.8.2-1.22.31-.41.07-.84.14-1.27.23,1.66.53,3.51.61,5.3.24,1.79-.37,3.53-1.17,5.02-2.32,1.49-1.15,2.72-2.65,3.63-4.34.9-1.69,1.45-3.6,1.6-5.51.16-1.88.04-3.81-.43-5.66-.47-1.85-1.22-3.64-2.28-5.24-1.34-2.08-3.15-3.86-5.24-5.19.69-.39,1.38-.78,2.06-1.19,1.33-.82,2.63-1.68,3.89-2.61,2.51-1.85,4.85-3.93,6.95-6.22,0,0,.01-.02.02-.02,1.14-1.25,3.16-.98,3.91.52.65,1.29,1.19,2.62,1.62,3.98.83,2.64,1.3,5.35,1.51,8.1.22,2.75.21,5.52.12,8.33-.07,2.82-.27,5.61-.25,8.61.03,1.5.15,3.04.45,4.59.15.72.34,1.44.58,2.16-.85,1.72-1.82,3.39-3,4.92-.14.21-.31.4-.48.6l-.49.59-.49.59c-.17.19-.35.37-.53.55-.36.36-.71.74-1.07,1.1l-1.15,1.02c-.37.35-.79.65-1.2.96-.41.3-.8.64-1.25.9l-1.29.84c-.44.26-.9.5-1.35.75-.23.12-.45.25-.68.37l-.7.32c-.47.2-.93.44-1.41.62ZM112.26,274.32c-.27,1.01-.46,2.4-.59,3.81-.37,3.93-3.76,6.92-7.7,6.74-.05,0-.1,0-.15,0-1.55-.08-3.1-.34-4.6-.79-1.49-.46-2.94-1.08-4.28-1.87-1.35-.79-2.6-1.74-3.71-2.83-.56-.54-1.08-1.12-1.58-1.72-.48-.61-.94-1.24-1.35-1.9-.2-.33-.41-.66-.59-1.01l-.28-.51-.25-.53c-.17-.35-.31-.71-.46-1.07-.01-.03-.03-.06-.04-.12-.81-2.37.28-4.98,2.5-6.13,2.41-1.25,5.36-2.84,6.4-3.64l1.37-1.12c.44-.39.86-.81,1.29-1.21.21-.21.43-.4.64-.62l.6-.65.6-.66c.2-.22.4-.43.58-.67l1.1-1.4c.19-.23.35-.47.52-.72l.5-.74.04-.06c1.32,1.54,2.92,2.81,4.71,3.72.57,1.03,1.15,2.06,1.79,3.09.68,1.09,1.45,2.17,2.37,3.2.92,1.02,2.02,1.98,3.31,2.72.01,0,.02.01.03.02-1.2,2.09-2.13,4.34-2.76,6.68ZM154.2,289.63c-.07.77-.19,1.54-.35,2.3-.13.59-.39,1.14-.59,1.71-.05.14-.12.28-.19.41l-.2.4-.2.41-.1.2c-.04.07-.08.13-.12.19-.33.5-.61,1.04-1.01,1.5l-.56.72-.63.69-.66.66-.69.63c-1.88,1.63-4.09,2.88-6.47,3.63-2.37.76-4.9,1.04-7.38.81-2.48-.23-4.91-.94-7.1-2.1-1.1-.58-2.14-1.28-3.1-2.07-.98-.81-1.91-1.71-2.75-2.67-3.38-3.84-5.52-8.78-5.92-13.92-.22-2.56-.04-5.17.56-7.69.02-.08.04-.16.06-.24.82-3.31,3.39-5.84,6.65-6.83.08-.02.15-.05.21-.07,1.35-.49,2.56-1.23,3.59-2.13.16-.14.31-.28.46-.43.91-.89,2.35-.89,3.26-.01.65.62,1.32,1.23,2.01,1.81.38.32.77.63,1.17.93,1.3.99,1.17,2.95-.2,3.83l-.03.02c-1.37.88-2.6,1.97-3.66,3.21l-.74,1.01c-.22.35-.43.72-.64,1.08-.18.37-.34.76-.51,1.14-.15.39-.27.79-.39,1.18-.43,1.6-.5,3.28-.22,4.88.28,1.59.91,3.1,1.83,4.36.92,1.26,2.1,2.28,3.44,2.89-1.66-2.42-2.41-5.02-2.3-7.49.1-2.47,1.04-4.74,2.57-6.47.82-.9,1.74-1.68,2.77-2.3,1.03-.62,2.16-1.05,3.33-1.32l.44-.09c.15-.03.29-.06.44-.07l.89-.1h.9c.15-.02.3-.01.45,0l.45.04c1.18.12,2.35.38,3.44.86,1.08.48,2.08,1.12,2.99,1.88.89.85,1.76,1.72,2.42,2.75,2.06,2.85,2.71,6.42,2.4,9.88ZM156.65,271.75s-.01,0-.02,0-.01,0-.02,0c-1.72-.03-3.43-.16-5.13-.43-1.92-.3-3.82-.75-5.66-1.39-3.68-1.26-7.19-3.12-10.25-5.56-3.08-2.42-5.79-5.34-7.91-8.66-2.12-3.32-3.71-6.99-4.6-10.85-.45-1.93-.73-3.9-.86-5.88l-.07-1.49c0-.5.01-1,.02-1.49.02-.5,0-1,.04-1.5l.13-1.49.06-.75c.02-.25.07-.49.11-.74l.24-1.48c.06-.5.2-.98.31-1.47l.34-1.46.45-1.43c.16-.48.28-.96.48-1.42.38-.93.7-1.88,1.16-2.78l.65-1.36c.24-.44.49-.87.74-1.31.47-.89,1.05-1.71,1.61-2.55.27-.43.58-.82.89-1.22l.93-1.2,1.01-1.13c.34-.37.66-.77,1.04-1.11.73-.7,1.43-1.43,2.23-2.06l1.17-.98,1.23-.89c.8-.62,1.69-1.12,2.55-1.67.35-.24.73-.43,1.11-.62.8.62,1.57,1.32,2.38,2.07.8.74,1.65,1.53,2.59,2.28,0,0-.02,0-.02.01l-1.22.53-.61.26c-.2.09-.39.2-.59.3-.78.42-1.59.8-2.33,1.3l-1.13.71c-.37.25-.72.53-1.08.79-2.85,2.14-5.37,4.76-7.32,7.79-1.95,3.03-3.37,6.41-4.16,9.95-.79,3.54-.95,7.23-.46,10.86,1,7.25,4.67,14.14,10.24,19.03,2.78,2.44,5.99,4.4,9.47,5.73,1.74.66,3.54,1.17,5.37,1.52,1.39.26,2.79.42,4.2.5,0,0,.45.03.68.02,0,0,.02,0,.02,0,0,0,.02,0,.02,0,.23,0,.68-.02.68-.02,1.41-.07,2.82-.24,4.2-.5,1.83-.35,3.63-.86,5.37-1.52,3.47-1.34,6.69-3.3,9.47-5.73,5.57-4.88,9.24-11.78,10.24-19.03.5-3.62.33-7.31-.46-10.86-.79-3.54-2.21-6.93-4.16-9.95-1.95-3.03-4.47-5.65-7.32-7.79-.36-.26-.71-.54-1.08-.79l-1.13-.71c-.74-.5-1.54-.89-2.32-1.3-.2-.1-.39-.21-.59-.3l-.61-.26-1.22-.53s-.02,0-.02-.01c.94-.75,1.79-1.54,2.59-2.28.81-.75,1.58-1.45,2.38-2.07.38.2.76.39,1.11.62.86.54,1.75,1.04,2.55,1.67l1.23.89,1.17.98c.8.63,1.5,1.36,2.23,2.06.37.34.69.73,1.04,1.11l1.01,1.13.93,1.2c.31.4.63.79.89,1.22.56.84,1.14,1.66,1.61,2.55.25.44.5.87.74,1.31l.65,1.36c.46.89.78,1.85,1.16,2.78.2.46.32.95.48,1.42l.45,1.43.34,1.46c.11.49.25.97.31,1.47l.24,1.48c.04.25.09.49.11.74l.06.75.13,1.49c.04.5.02,1,.04,1.5,0,.5.02,1,.02,1.49l-.07,1.49c-.13,1.98-.42,3.95-.86,5.88-.89,3.86-2.49,7.54-4.6,10.85-2.12,3.32-4.83,6.24-7.91,8.66-3.07,2.44-6.57,4.29-10.25,5.56-1.84.63-3.74,1.09-5.66,1.39-1.7.27-3.41.41-5.13.43ZM197.07,283.14c-.4,5.14-2.54,10.08-5.92,13.92-.84.96-1.77,1.86-2.75,2.67-.96.79-2,1.49-3.1,2.07-2.2,1.16-4.63,1.88-7.1,2.1-2.48.22-5-.05-7.38-.81-2.37-.76-4.59-2-6.47-3.63l-.69-.63-.66-.66-.63-.69-.56-.72c-.4-.46-.68-1-1.01-1.5-.04-.06-.08-.13-.12-.19l-.1-.2-.2-.41-.2-.4c-.07-.13-.14-.27-.19-.41-.2-.57-.46-1.12-.59-1.71-.16-.75-.28-1.52-.35-2.3-.31-3.46.33-7.04,2.4-9.88.66-1.03,1.53-1.9,2.42-2.75.9-.76,1.91-1.4,2.99-1.88,1.08-.48,2.25-.74,3.44-.86l.45-.04c.15-.02.3-.03.45-.02h.9s.89.12.89.12c.15.01.3.04.44.07l.44.09c1.16.27,2.3.69,3.33,1.32,1.02.63,1.95,1.4,2.77,2.3,1.53,1.74,2.47,4,2.57,6.47.11,2.47-.64,5.07-2.3,7.49,1.34-.62,2.52-1.64,3.44-2.89.91-1.26,1.55-2.76,1.83-4.36.28-1.59.21-3.27-.22-4.88-.12-.4-.24-.8-.39-1.18-.17-.38-.33-.77-.51-1.14-.21-.36-.42-.73-.64-1.08l-.74-1.01c-1.05-1.23-2.28-2.32-3.66-3.21l-.03-.02c-1.37-.88-1.5-2.84-.2-3.83.4-.3.78-.61,1.17-.93.69-.58,1.36-1.18,2.01-1.81.92-.88,2.35-.87,3.26.01.15.15.31.29.46.43,1.03.9,2.24,1.63,3.59,2.13.07.02.14.05.21.07,3.26.99,5.83,3.53,6.65,6.83.02.08.04.16.06.24.6,2.51.78,5.12.56,7.69ZM226.57,272.52c-.02.05-.03.09-.04.12-.15.36-.29.72-.46,1.07l-.25.53-.28.51c-.18.35-.38.67-.59,1.01-.41.66-.86,1.29-1.35,1.9-.5.6-1.02,1.18-1.58,1.72-1.12,1.09-2.37,2.04-3.71,2.83-1.34.8-2.79,1.41-4.28,1.87-1.5.45-3.05.71-4.6.79-.05,0-.1,0-.15,0-3.94.17-7.33-2.81-7.7-6.74-.13-1.4-.32-2.8-.59-3.81-.63-2.33-1.56-4.58-2.76-6.68.01,0,.02-.01.03-.02,1.29-.74,2.39-1.69,3.31-2.72.92-1.02,1.69-2.11,2.37-3.2.64-1.03,1.22-2.06,1.79-3.09,1.79-.91,3.39-2.18,4.71-3.72l.04.06.5.74c.16.25.33.49.52.72l1.1,1.4c.18.24.38.45.58.67l.6.66.6.65c.2.21.42.41.64.62.43.4.85.82,1.29,1.21l1.37,1.12c1.04.8,3.99,2.39,6.4,3.64,2.22,1.16,3.31,3.76,2.5,6.13ZM262.09,244.46c0,.25-.02.51-.05.76l-.07.76c-.08.5-.12,1.01-.23,1.51-.16,1-.44,1.98-.75,2.96-1.28,3.86-3.6,7.39-6.67,10.07-3.07,2.68-6.86,4.52-10.86,5.24-1.01.16-2,.31-3.04.33l-1.55.06c-.52-.01-1.03-.04-1.55-.06l-.77-.03-.77-.09c-.51-.07-1.02-.12-1.53-.19-1.01-.22-2.03-.37-3.01-.68l-.74-.21-.37-.1-.36-.13-1.45-.53c-.48-.18-.94-.42-1.41-.62l-.7-.32c-.23-.12-.45-.25-.68-.37-.45-.25-.9-.49-1.35-.75l-1.29-.84c-.44-.26-.83-.6-1.25-.9-.41-.31-.83-.6-1.2-.96l-1.15-1.02c-.37-.36-.71-.73-1.07-1.1-.18-.19-.36-.36-.53-.55l-.49-.59-.49-.59c-.16-.2-.33-.38-.48-.6-1.18-1.53-2.15-3.2-3-4.92.24-.71.44-1.44.58-2.16.3-1.55.42-3.1.45-4.59.02-3-.18-5.79-.25-8.61-.08-2.81-.09-5.58.12-8.33.22-2.75.68-5.46,1.51-8.1.43-1.36.97-2.69,1.62-3.98.76-1.5,2.78-1.77,3.91-.52,0,0,.01.02.02.02,2.1,2.29,4.43,4.37,6.95,6.22,1.25.93,2.56,1.79,3.89,2.61.68.41,1.37.81,2.06,1.19-2.09,1.33-3.9,3.11-5.24,5.19-1.05,1.6-1.81,3.39-2.28,5.24-.47,1.85-.59,3.78-.43,5.66.15,1.91.7,3.82,1.6,5.51.91,1.69,2.14,3.19,3.63,4.34,1.49,1.15,3.22,1.96,5.02,2.32,1.79.36,3.64.29,5.3-.24-.43-.09-.85-.17-1.27-.23-.41-.11-.82-.21-1.22-.31-.39-.14-.78-.27-1.16-.4l-1.11-.48c-1.43-.7-2.7-1.63-3.77-2.71-1.06-1.09-1.93-2.34-2.5-3.7-.59-1.37-.87-2.81-.9-4.29-.07-3.02.83-5.99,2.5-8.43.83-1.22,1.85-2.32,3.01-3.24,1.01-.8,2.12-1.46,3.3-1.98,2.03.91,4.12,1.7,6.24,2.38l3.79,1.21-1.35-3.75c-.03-.08-.06-.15-.08-.23.48.07.95.16,1.43.27,2.01.48,4.76,1.75,6.42,2.97,1.58,1.17,2.96,2.62,4.06,4.26,1.09,1.64,1.91,3.47,2.42,5.38l.18.72.09.36c.02.12.04.25.05.37.06.49.14.98.2,1.48.03.51.08,1.01.08,1.52v.76s-.02.76-.02.76ZM301.68,167.52c-1.22,2.8-3.03,5.33-5.24,7.42-2.22,2.1-4.87,3.71-7.74,4.73-1.43.51-2.92.87-4.44,1.07-1.5.21-2.97.24-4.44.07-2.94-.3-5.78-1.43-8.19-3.16-2.39-1.75-4.38-4.09-5.62-6.8-.64-1.35-1.06-2.79-1.33-4.26-.06-.37-.12-.74-.16-1.11l-.08-1.08c-.02-.18-.01-.36,0-.54l.02-.54c0-.18,0-.36.02-.54l.07-.54c.31-2.88,1.64-5.63,3.63-7.81.99-1.1,2.19-2.01,3.49-2.74.64-.4,1.34-.67,2.04-.96l1.08-.35c.36-.11.74-.17,1.11-.26.19-.04.38-.1.56-.12l.55-.07c.19-.02.37-.06.56-.06h.56c.19-.01.38-.03.56-.02l.56.04c.19.02.38.01.57.05l.56.1c1.5.27,2.96.85,4.29,1.69,1.33.85,2.51,1.97,3.46,3.31.95,1.34,1.64,2.9,2.04,4.57.09-3.45-1.48-7.05-4.24-9.51-1.37-1.24-3.03-2.2-4.84-2.79l-.68-.21c-.23-.07-.46-.1-.7-.16l-.7-.14c-.24-.05-.47-.06-.71-.09l-.72-.07c-.24-.02-.48,0-.72,0h-.72c-.24,0-.47.05-.71.07-1.89.14-3.76.66-5.51,1.44l-.66.3c-.22.11-.42.23-.63.35l-.63.36-.31.18-.3.21c-.39.28-.79.55-1.18.85-.37.31-.73.63-1.09.96-2.8,2.67-4.8,6.29-5.37,10.2l-.11.73c-.03.24-.04.49-.05.74l-.04.74c-.01.25-.03.49-.01.74l.07,1.48c.04.48.11.95.18,1.43.31,1.89.84,3.76,1.63,5.52,1.55,3.53,4.05,6.64,7.15,8.94.56.41,1.13.79,1.73,1.15,4.66,2.81,8.17,7.25,9.44,12.54.11.47.21.94.3,1.42.48,2.59.51,5.24.13,7.83-.35,2.59-1.18,5.1-2.34,7.42-.6,1.16-1.29,2.26-2.06,3.31-.2.26-.38.52-.59.77l-.62.75c-.21.24-.43.47-.64.7-.22.23-.45.44-.67.67-1.83,1.74-4.02,3.08-6.39,3.92-2.37.85-4.91,1.2-7.43,1.05-2.52-.15-4.99-.84-7.23-1.98-1.12-.57-2.18-1.26-3.17-2.05l-.37-.3c-.12-.1-.22-.21-.33-.31l-.67-.63c-.22-.21-.4-.46-.6-.68-.19-.23-.42-.45-.58-.7l-.53-.74c-.04-.06-.09-.12-.13-.19l-.11-.2-.23-.4-.23-.4-.11-.2-.09-.21-.37-.83-.09-.21-.07-.22-.14-.43-.15-.43-.07-.22-.05-.22-.21-.89-.05-.22-.03-.23-.06-.46c-.03-.3-.11-.61-.1-.91l-.03-.92c-.01-.15,0-.31,0-.46l.03-.46c.02-.31.01-.62.07-.92l.14-.91c.02-.15.05-.3.1-.45l.11-.45c.12-.61.36-1.17.56-1.76.03-.07.05-.15.08-.22l.1-.21.2-.42.2-.42.1-.21c.04-.07.08-.13.12-.2.33-.52.62-1.07,1.02-1.55.19-.24.37-.5.56-.74l.6-.66c.09-.12.21-.21.32-.31l.33-.3c.11-.1.22-.21.34-.3l.36-.26c1.9-1.45,4.31-2.22,6.75-2.27,1.23-.03,2.46.16,3.65.53.61.16,1.17.42,1.75.67l.83.45c.28.16.53.35.8.52.13.09.28.17.39.27l.36.29c.12.1.25.19.36.3l.33.33c.11.11.23.21.33.33l.3.36c.1.12.21.24.3.37l.27.39c.7,1.06,1.21,2.28,1.47,3.58.26,1.3.27,2.68.01,4.04-.26,1.36-.81,2.7-1.59,3.94,2.24-1.91,3.62-4.99,3.57-8.18-.01-1.59-.37-3.21-1.05-4.7l-.26-.56c-.09-.19-.2-.36-.31-.54l-.32-.53c-.11-.18-.24-.34-.36-.5l-.38-.5c-.13-.16-.28-.31-.42-.46l-.43-.46c-.14-.15-.3-.28-.45-.41-2.4-2.23-5.65-3.59-9-3.84-.02,0-.05,0-.07,0-2.98-.18-4.99-3.1-4-5.92.24-.69.43-1.31.54-1.79.53-2.38.85-4.76,1.1-7.1.13-1.17.23-2.32.33-3.49.1-1.18.19-2.42.15-3.72-.05-1.31-.21-2.66-.68-4.04-.47-1.37-1.21-2.66-2.28-3.74-.03-.03-.07-.06-.1-.09.39-1.12.8-2.22,1.17-3.36.58-1.73,1.07-3.52,1.3-5.39.23-1.86-.14-6.48-.13-6.48,1.65-1.46,2.95-3.45,3.59-5.59.1-.26.14-.54.21-.81.06-.27.12-.54.17-.81.09-.54.11-1.09.16-1.62.03-.54-.01-1.07-.02-1.59-.03-.52-.12-1.04-.18-1.54-.02-.15-.06-.32-.09-.49-.45-2.16,1.59-3.98,3.71-3.36.02,0,.04.01.06.02.96.3,1.95.52,2.94.71,1,.16,1.99.29,3,.33,1,.06,2.01.03,3.01-.03.9-.08,1.8-.18,2.68-.35,6.34-.37,12.69,1.27,17.91,4.69,2.68,1.71,5.04,3.89,7,6.35,1.99,2.45,3.52,5.25,4.59,8.2.53,1.48.92,3,1.21,4.54.06.39.14.77.19,1.16l.15,1.17c.04.39.06.77.09,1.15.02.38.02.77.03,1.15.02,3.06-.63,6.11-1.85,8.9Z"/>
</svg>